<svg xmlns="http://www.w3.org/2000/svg" xmlns:xlink="http://www.w3.org/1999/xlink" width="378" height="162.499" viewBox="0 0 378 162.499">
  <defs>
    <style>
      .cls-1 {
        fill: none;
      }

      .cls-2, .cls-3 {
        fill: url(#linear-gradient);
      }

      .cls-3 {
        filter: url(#Create_Join_back-2);
      }

      .cls-4 {
        clip-path: url(#clip-path);
      }

      .cls-5 {
        opacity: 0.5;
      }

      .cls-5, .cls-8 {
        clip-path: url(#clip-path-2);
      }

      .cls-6 {
        opacity: 0.7;
      }

      .cls-7 {
        fill: url(#linear-gradient-4);
      }

      .cls-13, .cls-8 {
        opacity: 0.3;
      }

      .cls-9 {
        fill: #e8e8e8;
      }

      .cls-10 {
        fill: #afafaf;
      }

      .cls-11 {
        fill: #3d3d3d;
      }

      .cls-12 {
        fill: #fff;
        opacity: 0.8;
      }

      .cls-14 {
        fill: #494949;
      }

      .cls-15 {
        filter: url(#Create_Join_back-3);
      }

      .cls-16 {
        filter: url(#Create_Join_back);
      }
    </style>
    <linearGradient id="linear-gradient" x1="0.5" y1="1" x2="0.5" y2="-0.304" gradientUnits="objectBoundingBox">
      <stop offset="0" stop-color="#57bb78"/>
      <stop offset="1" stop-color="#359254"/>
    </linearGradient>
    <filter id="Create_Join_back" x="0" y="0" width="378" height="162.499" filterUnits="userSpaceOnUse">
      <feOffset dy="3" input="SourceAlpha"/>
      <feGaussianBlur stdDeviation="3" result="blur"/>
      <feFlood flood-opacity="0.161"/>
      <feComposite operator="in" in2="blur"/>
      <feComposite in="SourceGraphic"/>
    </filter>
    <filter id="Create_Join_back-2" x="0" y="0" width="378" height="162.499" filterUnits="userSpaceOnUse">
      <feOffset dy="3" input="SourceAlpha"/>
      <feGaussianBlur stdDeviation="3" result="blur-2"/>
      <feFlood flood-opacity="0.161"/>
      <feComposite operator="in" in2="blur-2"/>
      <feComposite in="SourceGraphic"/>
    </filter>
    <clipPath id="clip-path">
      <rect class="cls-1" width="378" height="162.499"/>
    </clipPath>
    <filter id="Create_Join_back-3" x="0" y="0" width="378" height="162.499" filterUnits="userSpaceOnUse">
      <feOffset dy="3" input="SourceAlpha"/>
      <feGaussianBlur stdDeviation="3" result="blur-3"/>
      <feFlood flood-opacity="0.161"/>
      <feComposite operator="in" in2="blur-3"/>
      <feComposite in="SourceGraphic"/>
    </filter>
    <clipPath id="clip-path-2">
      <g class="cls-16" transform="matrix(1, 0, 0, 1, 0, 0)">
        <path id="Create_Join_back-4" data-name="Create / Join back" class="cls-2" d="M334,144.5H26.5A29.967,29.967,0,0,1,0,128.575V0H360V129.475A29.991,29.991,0,0,1,334,144.5Z"/>
      </g>
    </clipPath>
    <linearGradient id="linear-gradient-4" x1="0.122" y1="-0.791" x2="0.85" y2="-1.558" gradientUnits="objectBoundingBox">
      <stop offset="0" stop-color="#00e6c7" stop-opacity="0"/>
      <stop offset="1" stop-color="#deffe9"/>
    </linearGradient>
  </defs>
  <g id="Banner_back" data-name="Banner back" class="cls-4">
    <g class="cls-15" transform="matrix(1, 0, 0, 1, 0, 0)">
      <path id="Create_Join_back-6" data-name="Create / Join back" class="cls-2" d="M334,144.5H26.5A29.967,29.967,0,0,1,0,128.575V0H360V129.475A29.991,29.991,0,0,1,334,144.5Z" transform="translate(9 6)"/>
    </g>
    <g id="Mask_Group_7" data-name="Mask Group 7" class="cls-5" transform="translate(9 6)">
      <g id="Vector" class="cls-6" transform="translate(65.87 -312.905) rotate(30)">
        <path id="Path_167" data-name="Path 167" class="cls-7" d="M314.374,184.663l159.4,37.207,4.726-14.113L285.975,161.78l187.987,41.288,4.353-13.741L258.168,139.812l215.967,44.479,4.008-13.4L229.967,118.537l244.341,46.978,3.662-13.037L201.616,98.017l272.876,48.7,3.291-12.666-303.516-55.6,300.4,49.489,2.956-12.319L146.078,59.5l328.749,49.637L477.462,97.2,122.923,42.12,119.583,55.5l3.439.519-3.636,13.383,3.686.607L119.163,83.3l3.958.705-4.18,13.2,4.205.8-4.428,13.087,4.428.916L118.5,124.994l4.651,1.026-4.9,12.876,4.873,1.126-5.1,12.752,355.566,87.871,5.1-14.447Z" transform="translate(0 441.1)"/>
        <path id="Path_168" data-name="Path 168" class="cls-7" d="M475.683,91.223,121.108,41.054l-2.944,12.988,355.193,48.747Z" transform="translate(1.618 428.659)"/>
        <path id="Path_169" data-name="Path 169" class="cls-7" d="M475.376,85.223,120.763,39.988l-2.585,12.579L473.348,96.428Z" transform="translate(1.777 416.23)"/>
        <path id="Path_170" data-name="Path 170" class="cls-7" d="M475.069,79.234,120.406,38.923l-2.214,12.158L473.325,90.057Z" transform="translate(1.948 403.801)"/>
        <path id="Path_171" data-name="Path 171" class="cls-7" d="M474.784,73.235l-354.7-35.376-1.88,11.726L473.3,83.674Z" transform="translate(2.097 391.383)"/>
        <path id="Path_172" data-name="Path 172" class="cls-7" d="M474.5,67.269,119.777,36.792l-1.558,11.33,355.045,29.2Z" transform="translate(2.256 378.942)"/>
        <path id="Path_173" data-name="Path 173" class="cls-7" d="M474.241,61.258,119.492,35.727,118.23,46.613l355.021,24.33Z" transform="translate(2.393 366.523)"/>
        <path id="Path_174" data-name="Path 174" class="cls-7" d="M473.238,64.57l.755-9.3-354.8-20.608-.952,10.465Z" transform="translate(2.529 354.094)"/>
        <path id="Path_175" data-name="Path 175" class="cls-7" d="M473.222,58.2l.545-8.93L118.944,33.6l-.692,10.03Z" transform="translate(2.644 341.677)"/>
        <path id="Path_176" data-name="Path 176" class="cls-7" d="M473.2,51.829l.346-8.536L118.7,32.532l-.433,9.6Z" transform="translate(2.768 329.247)"/>
        <path id="Path_177" data-name="Path 177" class="cls-7" d="M473.182,45.445l.148-8.152L118.483,31.468l-.21,9.178Z" transform="translate(2.883 316.829)"/>
        <path id="Path_178" data-name="Path 178" class="cls-7" d="M118.281,39.137l354.871-.075V31.306l-354.871-.9Z" transform="translate(2.985 304.411)"/>
        <path id="Path_179" data-name="Path 179" class="cls-7" d="M473.172,29.02l-354.9,4.033.173,8.287L473.32,36.392Z" transform="translate(2.893 288.279)"/>
        <path id="Path_180" data-name="Path 180" class="cls-7" d="M473.188,27.567,118.266,36.522l.371,7.843,354.847-9.834Z" transform="translate(2.802 271.327)"/>
        <path id="Path_181" data-name="Path 181" class="cls-7" d="M473.206,26.112,118.26,40.016l.506,7.4L473.6,32.692Z" transform="translate(2.735 254.352)"/>
        <path id="Path_182" data-name="Path 182" class="cls-7" d="M473.214,24.66,118.255,43.473l.631,6.964,354.823-19.58Z" transform="translate(2.677 237.412)"/>
        <path id="Path_183" data-name="Path 183" class="cls-7" d="M473.222,23.206,118.25,46.955l.742,6.531L473.816,29.007Z" transform="translate(2.62 220.448)"/>
        <path id="Path_184" data-name="Path 184" class="cls-7" d="M473.23,21.752,118.247,50.436l.828,6.086L473.886,27.157Z" transform="translate(2.587 203.484)"/>
        <path id="Path_185" data-name="Path 185" class="cls-7" d="M473.228,20.3,118.244,53.906l.9,5.641L473.958,25.308Z" transform="translate(2.551 186.531)"/>
        <path id="Path_186" data-name="Path 186" class="cls-7" d="M473.238,18.845l-355,38.556.94,5.183,354.8-39.112Z" transform="translate(2.529 169.568)"/>
        <path id="Path_187" data-name="Path 187" class="cls-7" d="M473.993,21.622l-.766-4.23L118.242,60.882l.965,4.724Z" transform="translate(2.529 152.616)"/>
        <path id="Path_188" data-name="Path 188" class="cls-7" d="M473.993,19.773l-.766-3.834L118.242,64.351l.965,4.28Z" transform="translate(2.529 135.664)"/>
        <path id="Path_189" data-name="Path 189" class="cls-7" d="M473.993,17.923l-.755-3.438-355,53.323.952,3.859Z" transform="translate(2.529 118.712)"/>
        <path id="Path_190" data-name="Path 190" class="cls-7" d="M473.968,16.076l-.742-3.044L118.243,71.28l.927,3.414Z" transform="translate(2.541 101.758)"/>
        <path id="Path_191" data-name="Path 191" class="cls-7" d="M473.91,14.238l-.693-2.66L118.246,74.76l.866,2.982Z" transform="translate(2.575 84.795)"/>
        <path id="Path_192" data-name="Path 192" class="cls-7" d="M473.863,12.4l-.644-2.276L118.248,78.242l.8,2.534Z" transform="translate(2.597 67.831)"/>
        <path id="Path_193" data-name="Path 193" class="cls-7" d="M473.78,10.551l-.557-1.88-354.97,73.04.717,2.09Z" transform="translate(2.644 50.879)"/>
        <path id="Path_194" data-name="Path 194" class="cls-7" d="M473.7,8.7l-.482-1.484L118.256,85.2l.605,1.658Z" transform="translate(2.689 33.916)"/>
        <path id="Path_195" data-name="Path 195" class="cls-7" d="M473.58,6.876l-.371-1.113-354.948,82.9.47,1.237Z" transform="translate(2.757 16.952)"/>
        <path id="Path_196" data-name="Path 196" class="cls-7" d="M473.437,5.027l-.247-.717L118.268,92.131l.322.816Z" transform="translate(2.826 0)"/>
      </g>
    </g>
    <g id="Mask_Group_8" data-name="Mask Group 8" class="cls-8" transform="translate(9 6)">
      <g id="Soccer_Vector" data-name="Soccer Vector" transform="translate(100.091 327.361) rotate(-120)">
        <ellipse id="Ellipse_53" data-name="Ellipse 53" class="cls-9" cx="67.881" cy="67.701" rx="67.881" ry="67.701" transform="translate(178.084 32.063)"/>
        <g id="Group_79" data-name="Group 79" transform="translate(178.159 40.113)">
          <path id="Path_197" data-name="Path 197" class="cls-10" d="M207.764,54.97l-.1.179-.362-.2.1-.178A40.973,40.973,0,0,1,230.431,37.4l.2-.056.113.39-.2.056A40.519,40.519,0,0,0,207.764,54.97ZM195.535,94.609h0l.021-.4-.3-.1-.085.133a.552.552,0,0,0-.014.111h-.018l.017,0v.022h-.015l-.012.2h.012c-.164,2.564-.383,19.153,11.49,31.621l.141.149.3-.278-.142-.149C194.987,113.39,195.422,96.717,195.535,94.609ZM297.753,54.773l.132.157.317-.259-.131-.157c-11.507-13.688-22.2-16.882-29.233-18.093l-.2-.035-.072.4.2.035C275.74,38.023,286.333,41.19,297.753,54.773Zm-37.621,9.8-.007.2.413.012.007-.2c.178-5.247-2.485-17.153-6.734-26.512l-.084-.187-.378.167.084.186C257.659,47.552,260.31,59.375,260.132,64.577ZM240.185,80.4l.072-.4L212.118,75.2l-.2-.034-.072.4,28.139,4.805ZM280.236,79l.1.394,23.277-5.809.2-.05-.1-.394-23.277,5.809Zm-30.987,23.6-.368-.184-.094.182a114.511,114.511,0,0,1-19.765,26.2l-.147.142.291.29.147-.142a114.961,114.961,0,0,0,19.844-26.309Zm25.046-.183-.1-.176-.357.206.1.175c.114.191,11.376,19.191,13.243,25.365l.058.194.4-.115-.059-.2C285.695,121.658,274.408,102.616,274.3,102.424Zm-2.647,44.626c-16.618,4.668-28.328,1.4-28.445,1.367l-.2-.057-.117.39.2.057a43.645,43.645,0,0,0,10.857,1.159,65.963,65.963,0,0,0,17.817-2.526l.2-.056-.114-.392Zm40.1-56.037,0,.2c-.382,20.923-9.122,33.767-9.21,33.895l-.116.168.34.229.117-.168c.09-.129,8.9-13.066,9.282-34.116l0-.2Zm-86.627,65.308c-.033.1-.587,1.759-.915,3.214l.391.131c.327-1.459.907-3.193.916-3.217l.065-.192-.393-.129ZM189.1,59.966c-.123.184-.241.37-.361.554a10.95,10.95,0,0,0,.923,3.037l.094.182.369-.182-.091-.182A10.694,10.694,0,0,1,189.1,59.966Zm11.439,80.812a32.308,32.308,0,0,1-4.659.629c.124.133.253.259.379.39a32.861,32.861,0,0,0,4.369-.622l.2-.045-.09-.4ZM182.549,88.434a23.074,23.074,0,0,0-4.4,4.759c-.012.255-.011.512-.019.768a22.419,22.419,0,0,1,4.673-5.206l.163-.125-.252-.321Z" transform="translate(-178.129 -36.386)"/>
        </g>
        <g id="Group_80" data-name="Group 80" transform="translate(183.508 32.063)">
          <path id="Path_198" data-name="Path 198" class="cls-11" d="M194.069,98.846c-5.134-1.408-11.7-5.295-12.62-8.182-.731-10.544,4.206-21.271,7.133-25.27,3.658-4.909,11.523-7.636,18.29-9.635,0,10.18,3.84,21.635,3.84,21.635C204.184,80.958,196.207,92.774,194.069,98.846Zm35.908-65.822c-1.091,1.2-2.178,3.279-1.888,6.735,4.707-.371,15.27-.657,25.788,4.726,3.109-2.182,11.759-5.1,16.461-5.454-.75-.993-1.863-2.261-3-3.5a67.958,67.958,0,0,0-37.359-2.5Zm-27.128,92.365s-4.542,12.565-3.842,17.09c1.1,7.091,22.5,16.363,24.874,16.363s10.609-3.819,17.742-7.818C237.6,146.478,231.562,136.3,229,130.3A81.741,81.741,0,0,1,202.848,125.389Zm100.2,5.9a37.426,37.426,0,0,0,.027-7.722c-1.645,1.454-12.986,4.728-18.107,5.273-2.377,7.091-12.072,18.181-16.826,21.271,3.108,4.635,6.8,6.176,9.421,6.642A67.513,67.513,0,0,0,303.048,131.293Zm-28.685-23.508c3.205-7.685,7.166-23.057,6.978-27.556-5.658-5.438-19.99-15.184-23.008-15,0,0-12.447,6.374-21.877,16.5,2.264,7.123,9.053,26.433,9.053,26.433A214.977,214.977,0,0,0,274.363,107.784ZM296.289,55.89l-.9-.132s6.951,10.727,3.293,20.18c4.389,5.09,10.059,12.726,11.156,20.362.6-.9,1.146-1.725,1.649-2.5A66.491,66.491,0,0,0,296.289,55.89Z" transform="translate(-181.376 -31.5)"/>
        </g>
        <ellipse id="Ellipse_54" data-name="Ellipse 54" class="cls-12" cx="33.226" cy="23.203" rx="33.226" ry="23.203" transform="translate(196.236 52.938) rotate(-19.614)"/>
        <g id="Group_81" data-name="Group 81" class="cls-13" transform="translate(178.083 64.503)">
          <path id="Path_199" data-name="Path 199" class="cls-14" d="M300.294,51.19A57.536,57.536,0,0,1,302.8,67.961c0,33.381-28.538,60.443-63.739,60.443C210.484,128.4,186.3,110.568,178.21,86c-.077,1.254-.127,2.514-.127,3.786,0,35.551,30.392,64.369,67.881,64.369s67.881-28.819,67.881-64.369A61.94,61.94,0,0,0,300.294,51.19ZM245.4,151.54a67.641,67.641,0,0,1-44.368-16.3,73.592,73.592,0,0,0,41.594,12.716c30.443,0,56.412-18.1,66.634-43.566C302.064,131.483,276.205,151.54,245.4,151.54Z" transform="translate(-178.083 -51.19)"/>
        </g>
      </g>
    </g>
  </g>
</svg>
