<svg xmlns="http://www.w3.org/2000/svg" width="357.336" height="383.034" viewBox="0 0 357.336 383.034">
    <defs>
        <linearGradient id="prefix__linear-gradient" x1=".533" x2=".536" y1=".421" y2=".423" gradientUnits="objectBoundingBox">
            <stop offset="0" stop-color="#3ad076"/>
            <stop offset="1" stop-color="#3cc071"/>
        </linearGradient>
        <clipPath id="prefix__clip-path">
            <path d="M0 0H357.336V383.034H0z" style="fill:none"/>
        </clipPath>
    </defs>
    <g id="prefix__Icon">
        <g id="prefix__Group_1" data-name="Group 1" transform="translate(.5 .5)">
            <g id="prefix__baseGreen">
                <path id="prefix__Union_1" d="M50.86 302.813a177.616 177.616 0 1 1 60.214 40.457l-77.165 38.354z" data-name="Union 1"/>
            </g>
        </g>
        <circle id="prefix__white" cx="144.689" cy="144.689" r="144.689" transform="translate(36.421 23.489)" style="fill:#fff"/>
        <path id="prefix__ballShape" d="M636.519 378.518c80.488 36.048 116.93 130.551 81.281 210.782-35.855 80.7-131.37 117.447-211.223 81.273-80.8-36.61-116.8-131.023-80.62-211.46 36.011-80.071 130.757-116.333 210.562-80.595zm-39.258 134.691c6.756-14.695 7.107-20.8 8.028-26.788.281-1.828.09-4.4-.966-5.888q-15.528-21.858-31.544-43.377a8.908 8.908 0 0 0-5.649-3.3c-19.531-1.593-38.805-.416-57.651 5.6-5.206 1.664-8.631 4.554-10.789 9.449-6.419 14.6-12.745 29.256-19.558 43.679-2.685 5.685-2.1 10.472.72 15.774 8.427 15.874 20.112 29.109 33.2 41.14a12.88 12.88 0 0 0 9.081 3.018c17.578-2.046 35.108-4.586 52.614-7.232a8.685 8.685 0 0 0 5.411-3.584c2.69-4.156 10.348-13.8 17.103-28.491zm89.939 48.406c2.9-7.616 6.152-15.853 9.117-24.191.659-1.83 1-4.347.271-6.012-8.015-18.251-17.4-35.688-31.769-49.871a9.283 9.283 0 0 0-6.457-2.524q-22.729 2.032-45.367 4.914c-1.711.217-4.028 2.543-4.5 4.461-1.134 4.625-1.665 21.443-24.915 54.288-.869 1.726-1.369 4.575-.54 6.07q13.054 23.484 26.727 46.608a7.828 7.828 0 0 0 4.709 3.458c17.354 2.962 34.568 2.163 51.329-3.356a14.849 14.849 0 0 0 7.414-6.45c4.898-8.71 9.146-17.797 13.981-27.395zm-259.971-12.482c-1.083 11.052-.165 22.011 6.825 31.408 7.67 10.313 15.246 20.728 23.449 30.609 2.133 2.575 6.506 4.84 9.753 4.685 4.708-.235 18.807-.946 30.517-2.742 3.48-.535 7.754-2.456 7.595-6.147-.692-16.106 1.391-31.882 7.348-46.941 1.472-3.72.494-5.869-2.219-8.448-14.427-13.72-27.583-28.437-35.932-46.884-.615-1.361-3.683-2.55-5.4-2.309-8.566 1.192-17.03 3.092-25.592 4.324-10.685.783-15.224 31.06-16.344 42.445zm141.436 90.272s6.4 15.038 10.295 22.7c4.245 8.363 14.1 13.8 23.437 11.872 30.07-6.205 55.807-20.484 77.363-42.29 1.089-1.1 2.362-3.131 2.042-4.325-2.751-10.262-5.853-20.432-8.912-30.836-20.331 7.369-39.542 8.337-59.1 5.7a7.2 7.2 0 0 0-5.009 1.742c-13.355 11.81-25.767 22.543-40.115 35.437zm-89.508-224.268c7.733 7.667 14.414 14.434 21.3 20.985 1.11 1.046 3.46 1.951 4.726 1.5 19.779-7.162 40.2-8.4 60.949-7.16 1.532.092 3.869-.272 4.581-1.3 8.635-12.444 19.415-22.715 32.775-32.161-5.883-4.491-10.867-9-16.5-12.444-11.546-7.06-23.4-13.941-37.855-9.845-13.85 3.926-27.824 7.563-41.373 12.359-14.119 4.999-20.847 17.983-28.603 28.066zM463.226 619c.048 10.6 3.741 17.919 11.858 24.219 25.09 19.467 53.048 30.861 84.673 33.748 7.49.686 13.531-1.082 18.788-5.95-4.591-9.981-9.12-19.945-13.809-29.829a5.01 5.01 0 0 0-2.985-2.182c-18.392-4.958-35.309-13.233-51.791-22.582a5.522 5.522 0 0 0-4.428-.719A117.382 117.382 0 0 1 463.226 619zm212.091-204.756c-3.141 4.554-5.754 8.095-8.071 11.824a5.933 5.933 0 0 0-.8 4.246c4.26 14.371 2.348 28.521-.839 42.749-.434 1.935.682 4.694 1.96 6.434 2.946 4.011 20.544 20.493 31.1 48.264.659 1.742 2.55 3.86 3.98 3.958 6.657.478 13.362.306 20.709.365.969-46.073-14.569-85.016-48.039-117.84zm-11.087 10.2c1.6-2.2 3.475-5.058 5.627-7.689 2.816-3.449 2.061-5.7-1.341-8.478-26.025-21.234-55.7-32.95-89.219-34.941a12.252 12.252 0 0 0-2.815.233c9.627 7.257 19.638 14.821 29.7 22.321a11.9 11.9 0 0 0 3.143 1.207c5.972 2.094 12.291 3.5 17.833 6.4 12.367 6.482 24.349 13.698 37.072 20.948zM423.612 556.063c-.023.459-.215.274 7.241-50.179 1.878-20.162.571-34.771.74-38.71q-19.244 43.011-7.981 88.889zm61.776-156.35a126.217 126.217 0 0 0-32.553 30.914c12.612-8.186 26.237-15.293 32.553-30.913z" transform="translate(-390.732 -344.492)"/>
    </g>
</svg>
