<svg xmlns="http://www.w3.org/2000/svg" id="_001-facebook" width="35.89" height="35.89" data-name="001-facebook" viewBox="0 0 35.89 35.89">
    <defs>
        <style>
            .cls-1{fill:#646767}
        </style>
    </defs>
    <path id="Path_118" d="M291.305 508.668q-.224.037-.45.067.226-.035.45-.067zm0 0" class="cls-1" data-name="Path 118" transform="translate(-270.467 -473.011)"/>
    <path id="Path_119" d="M299.554 507.793l-.214.038zm0 0" class="cls-1" data-name="Path 119" transform="translate(-278.356 -472.198)"/>
    <path id="Path_120" d="M278.137 510.34q-.262.03-.528.052.266-.022.528-.052zm0 0" class="cls-1" data-name="Path 120" transform="translate(-258.15 -474.566)"/>
    <path id="Path_121" d="M286.7 509.738l-.253.031zm0 0" class="cls-1" data-name="Path 121" transform="translate(-266.366 -474.006)"/>
    <path id="Path_122" d="M306.853 506.41l-.189.04zm0 0" class="cls-1" data-name="Path 122" transform="translate(-285.167 -470.912)"/>
    <path id="Path_123" d="M324.637 502.113l-.153.042zm0 0" class="cls-1" data-name="Path 123" transform="translate(-301.739 -466.916)"/>
    <path id="Path_124" d="M319.225 503.543l-.166.043zm0 0" class="cls-1" data-name="Path 124" transform="translate(-296.694 -468.246)"/>
    <path id="Path_125" d="M312.243 505.254l-.177.04zm0 0" class="cls-1" data-name="Path 125" transform="translate(-290.191 -469.837)"/>
    <path id="Path_126" d="M273.764 511.09l-.284.021zm0 0" class="cls-1" data-name="Path 126" transform="translate(-254.31 -475.264)"/>
    <path id="Path_127" d="M35.89 17.945A17.945 17.945 0 1 0 17.945 35.89h.315V21.917h-3.855v-4.494h3.855v-3.306c0-3.835 2.341-5.922 5.761-5.922a31.737 31.737 0 0 1 3.456.177v4.008H25.12c-1.861 0-2.221.884-2.221 2.182v2.862h4.45l-.58 4.493H22.9V35.2a17.955 17.955 0 0 0 12.99-17.255zm0 0" class="cls-1" data-name="Path 127"/>
    <path id="Path_128" d="M265.453 511.43q-.28.018-.562.028.282-.01.562-.028zm0 0" class="cls-1" data-name="Path 128" transform="translate(-246.322 -475.58)"/>
    <path id="Path_129" d="M260.8 511.836l-.3.007zm0 0" class="cls-1" data-name="Path 129" transform="translate(-242.243 -475.957)"/>
</svg>
