<svg id="_001-facebook" data-name="001-facebook" xmlns="http://www.w3.org/2000/svg" width="35.89" height="35.89" viewBox="0 0 35.89 35.89">
  <defs>
    <style>
      .cls-1 {
        fill: #feedaa;
      }

      .cls-2 {
        fill: #9ec4ef;
      }
    </style>
  </defs>
  <path id="Path_118" data-name="Path 118" class="cls-1" d="M291.305,508.668q-.224.037-.45.067Q291.081,508.7,291.305,508.668Zm0,0" transform="translate(-270.467 -473.011)"/>
  <path id="Path_119" data-name="Path 119" class="cls-1" d="M299.554,507.793l-.214.038Zm0,0" transform="translate(-278.356 -472.198)"/>
  <path id="Path_120" data-name="Path 120" class="cls-1" d="M278.137,510.34q-.262.03-.528.052Q277.875,510.37,278.137,510.34Zm0,0" transform="translate(-258.15 -474.566)"/>
  <path id="Path_121" data-name="Path 121" class="cls-1" d="M286.7,509.738l-.253.031Zm0,0" transform="translate(-266.366 -474.006)"/>
  <path id="Path_122" data-name="Path 122" class="cls-1" d="M306.853,506.41l-.189.04Zm0,0" transform="translate(-285.167 -470.912)"/>
  <path id="Path_123" data-name="Path 123" class="cls-1" d="M324.637,502.113l-.153.042Zm0,0" transform="translate(-301.739 -466.916)"/>
  <path id="Path_124" data-name="Path 124" class="cls-1" d="M319.225,503.543l-.166.043Zm0,0" transform="translate(-296.694 -468.246)"/>
  <path id="Path_125" data-name="Path 125" class="cls-1" d="M312.243,505.254l-.177.04Zm0,0" transform="translate(-290.191 -469.837)"/>
  <path id="Path_126" data-name="Path 126" class="cls-1" d="M273.764,511.09l-.284.021Zm0,0" transform="translate(-254.31 -475.264)"/>
  <path id="Path_127" data-name="Path 127" class="cls-2" d="M35.89,17.945A17.945,17.945,0,1,0,17.945,35.89c.105,0,.21,0,.315,0V21.917H14.405V17.423h3.855V14.117c0-3.835,2.341-5.922,5.761-5.922a31.737,31.737,0,0,1,3.456.177V12.38H25.12c-1.861,0-2.221.884-2.221,2.182v2.862h4.45l-.58,4.493H22.9V35.2A17.955,17.955,0,0,0,35.89,17.945Zm0,0"/>
  <path id="Path_128" data-name="Path 128" class="cls-1" d="M265.453,511.43q-.28.018-.562.028Q265.173,511.448,265.453,511.43Zm0,0" transform="translate(-246.322 -475.58)"/>
  <path id="Path_129" data-name="Path 129" class="cls-1" d="M260.8,511.836l-.3.007Zm0,0" transform="translate(-242.243 -475.957)"/>
</svg>
