<svg xmlns="http://www.w3.org/2000/svg" id="_011-instagram" width="35.89" height="35.89" data-name="011-instagram" viewBox="0 0 35.89 35.89">
    <defs>
        <style>
            .cls-1{fill:#646767}
        </style>
    </defs>
    <path id="Path_132" d="M213.87 210.435a3.435 3.435 0 1 1-3.435-3.435 3.435 3.435 0 0 1 3.435 3.435zm0 0" class="cls-1" data-name="Path 132" transform="translate(-192.49 -192.49)"/>
    <path id="Path_133" d="M151.965 137.859a3.412 3.412 0 0 0-1.956-1.956 5.7 5.7 0 0 0-1.913-.355c-1.087-.05-1.413-.06-4.164-.06s-3.077.01-4.164.06a5.705 5.705 0 0 0-1.913.355 3.414 3.414 0 0 0-1.956 1.956 5.7 5.7 0 0 0-.355 1.913c-.05 1.087-.06 1.412-.06 4.164s.011 3.077.06 4.164a5.7 5.7 0 0 0 .355 1.913 3.412 3.412 0 0 0 1.956 1.956 5.694 5.694 0 0 0 1.913.355c1.087.05 1.412.06 4.164.06s3.078-.01 4.164-.06a5.694 5.694 0 0 0 1.913-.355 3.412 3.412 0 0 0 1.956-1.956 5.706 5.706 0 0 0 .355-1.913c.05-1.087.06-1.413.06-4.164s-.01-3.077-.06-4.164a5.694 5.694 0 0 0-.355-1.913zm-8.033 11.368a5.291 5.291 0 1 1 5.291-5.291 5.291 5.291 0 0 1-5.29 5.292zm5.5-9.555a1.237 1.237 0 1 1 1.237-1.237 1.237 1.237 0 0 1-1.236 1.237zm0 0" class="cls-1" data-name="Path 133" transform="translate(-125.988 -125.991)"/>
    <path id="Path_134" d="M17.945 0A17.945 17.945 0 1 0 35.89 17.945 17.947 17.947 0 0 0 17.945 0zm10.242 22.193a7.56 7.56 0 0 1-.479 2.5 5.269 5.269 0 0 1-3.014 3.014 7.565 7.565 0 0 1-2.5.479c-1.1.05-1.45.062-4.248.062s-3.149-.012-4.249-.062a7.565 7.565 0 0 1-2.5-.479 5.269 5.269 0 0 1-3.014-3.014 7.558 7.558 0 0 1-.479-2.5c-.051-1.1-.062-1.45-.062-4.249s.01-3.144.058-4.244a7.561 7.561 0 0 1 .479-2.5A5.272 5.272 0 0 1 11.2 8.182a7.567 7.567 0 0 1 2.5-.482c1.1-.05 1.45-.062 4.248-.062s3.149.012 4.248.062a7.569 7.569 0 0 1 2.5.478 5.27 5.27 0 0 1 3.012 3.022 7.559 7.559 0 0 1 .479 2.5c.05 1.1.062 1.45.062 4.248s-.011 3.147-.062 4.245zm0 0" class="cls-1" data-name="Path 134"/>
</svg>
