<svg xmlns="http://www.w3.org/2000/svg" width="35.89" height="35.89" viewBox="0 0 35.89 35.89">
  <defs>
    <style>
      .cls-1 {
        fill: #bcf5f6;
      }
    </style>
  </defs>
  <path id="_013-twitter-1" data-name="013-twitter-1" class="cls-1" d="M17.945,0A17.945,17.945,0,1,0,35.89,17.945,17.947,17.947,0,0,0,17.945,0Zm8.194,13.992q.012.265.012.532A11.64,11.64,0,0,1,14.431,26.243h0a11.659,11.659,0,0,1-6.313-1.85,8.377,8.377,0,0,0,.982.057,8.265,8.265,0,0,0,5.116-1.763,4.124,4.124,0,0,1-3.848-2.861,4.105,4.105,0,0,0,1.86-.071,4.12,4.12,0,0,1-3.3-4.037c0-.019,0-.035,0-.053a4.091,4.091,0,0,0,1.866.515,4.122,4.122,0,0,1-1.275-5.5,11.694,11.694,0,0,0,8.49,4.3,4.121,4.121,0,0,1,7.019-3.756,8.262,8.262,0,0,0,2.616-1,4.135,4.135,0,0,1-1.811,2.278,8.215,8.215,0,0,0,2.365-.649,8.371,8.371,0,0,1-2.054,2.133Zm0,0"/>
</svg>
