<svg xmlns="http://www.w3.org/2000/svg" xmlns:xlink="http://www.w3.org/1999/xlink" width="35.89" height="35.89" viewBox="0 0 35.89 35.89">
  <defs>
    <style>
      .cls-1 {
        fill: none;
      }

      .cls-2 {
        clip-path: url(#clip-path);
      }

      .cls-3 {
        fill: #89e7a8;
      }
    </style>
    <clipPath id="clip-path">
      <rect class="cls-1" width="35.89" height="35.89"/>
    </clipPath>
  </defs>
  <g id="Youtube_icon" data-name="Youtube icon" class="cls-2">
    <path id="Path_130" data-name="Path 130" class="cls-3" d="M224.113,214.763l5.837-3.362-5.837-3.362Zm0,0" transform="translate(-208.403 -193.456)"/>
    <path id="Path_131" data-name="Path 131" class="cls-3" d="M17.945,0A17.945,17.945,0,1,0,35.89,17.945,17.947,17.947,0,0,0,17.945,0ZM29.158,17.963a29.618,29.618,0,0,1-.462,5.394,2.81,2.81,0,0,1-1.977,1.976c-1.755.462-8.775.462-8.775.462s-7,0-8.775-.48a2.81,2.81,0,0,1-1.977-1.977,29.488,29.488,0,0,1-.462-5.394,29.6,29.6,0,0,1,.462-5.394,2.867,2.867,0,0,1,1.977-2c1.755-.462,8.775-.462,8.775-.462s7.02,0,8.775.48A2.81,2.81,0,0,1,28.7,12.551a28.107,28.107,0,0,1,.462,5.412Zm0,0"/>
  </g>
</svg>
