<svg xmlns="http://www.w3.org/2000/svg" id="_008-youtube" width="35.89" height="35.89" data-name="008-youtube" viewBox="0 0 35.89 35.89">
    <defs>
        <style>
            .cls-1{fill:#646767}
        </style>
    </defs>
    <path id="Path_130" d="M224.113 214.763l5.837-3.362-5.837-3.362zm0 0" class="cls-1" data-name="Path 130" transform="translate(-208.403 -193.456)"/>
    <path id="Path_131" d="M17.945 0A17.945 17.945 0 1 0 35.89 17.945 17.947 17.947 0 0 0 17.945 0zm11.213 17.963a29.618 29.618 0 0 1-.462 5.394 2.81 2.81 0 0 1-1.977 1.976c-1.755.462-8.775.462-8.775.462s-7 0-8.775-.48a2.81 2.81 0 0 1-1.977-1.977 29.488 29.488 0 0 1-.462-5.394 29.6 29.6 0 0 1 .462-5.394 2.867 2.867 0 0 1 1.977-2c1.755-.462 8.775-.462 8.775-.462s7.02 0 8.775.48a2.81 2.81 0 0 1 1.981 1.983 28.107 28.107 0 0 1 .462 5.412zm0 0" class="cls-1" data-name="Path 131"/>
</svg>
