<svg xmlns="http://www.w3.org/2000/svg" width="10.786" height="14.612" viewBox="0 0 10.786 14.612">
  <defs>
    <style>
      .cls-1 {
        fill: #53575a;
      }
    </style>
  </defs>
  <g id="Achievements_icon" data-name="Achievements icon" transform="translate(0 0)">
    <path id="Path_140" data-name="Path 140" class="cls-1" d="M100.835,107.973a2.589,2.589,0,1,0,2.589,2.589A2.592,2.592,0,0,0,100.835,107.973Zm0,0" transform="translate(-95.442 -104.892)"/>
    <path id="Path_141" data-name="Path 141" class="cls-1" d="M10.786,7.423,10,5.671l.785-1.752L9.121,2.962,8.726,1.083l-1.909.205L5.393,0,3.97,1.288,2.06,1.083,1.666,2.962,0,3.918.786,5.671,0,7.423l1.665.956L1.879,9.4.1,13.174l1.855.024,1.2,1.414L4.905,10.9l.488.442.488-.442,1.747,3.713L8.83,13.2l1.855-.024L8.907,9.4l.214-1.018ZM5.393,9.116A3.445,3.445,0,1,1,8.839,5.671,3.449,3.449,0,0,1,5.393,9.116Zm0,0" transform="translate(0 0)"/>
  </g>
</svg>
