<svg xmlns="http://www.w3.org/2000/svg" width="28.334" height="28.335" viewBox="0 0 28.334 28.335">
  <defs>
    <style>
      .cls-1 {
        fill: #b2c4c3;
      }
    </style>
  </defs>
  <g id="Baseball_Icon" data-name="Baseball Icon" transform="translate(0 0)">
    <path id="Path_5" data-name="Path 5" class="cls-1" d="M186.011,165.831A14.167,14.167,0,1,0,200.178,180,14.167,14.167,0,0,0,186.011,165.831ZM174.351,180a11.618,11.618,0,0,1,3.239-8.053,12.681,12.681,0,0,1,1.167,1.795q-.217.176-.421.37a4.6,4.6,0,0,0-.74.88,4.637,4.637,0,0,0,1.079-.4c.136-.068.267-.142.4-.218a12.507,12.507,0,0,1,.578,1.476c-.145.066-.289.134-.431.211a4.516,4.516,0,0,0-.93.648,4.513,4.513,0,0,0,1.13-.091c.143-.028.282-.064.422-.1a12.552,12.552,0,0,1,.323,1.744c-.159.048-.318.1-.475.162a4.463,4.463,0,0,0-1,.523,4.437,4.437,0,0,0,1.128.054c.137-.009.272-.026.408-.043.014.243.023.486.023.732,0,.392-.02.778-.055,1.16-.226,0-.451.006-.678.027a4.454,4.454,0,0,0-1.1.233,4.466,4.466,0,0,0,1.069.357c.208.044.417.075.627.1a12.551,12.551,0,0,1-.351,1.6c-.111-.028-.222-.058-.335-.081a4.5,4.5,0,0,0-1.13-.1,4.508,4.508,0,0,0,.927.653c.11.061.223.113.336.167a12.579,12.579,0,0,1-.774,1.784c-.126-.064-.252-.128-.383-.184a4.6,4.6,0,0,0-1.1-.337,4.579,4.579,0,0,0,.781.838c.116.1.236.191.357.282a12.767,12.767,0,0,1-1.12,1.571A11.612,11.612,0,0,1,174.351,180Zm4.054,8.827a14.219,14.219,0,0,0,1.33-1.85c.076.036.151.076.229.11a4.66,4.66,0,0,0,1.094.337,4.664,4.664,0,0,0-.782-.837c-.071-.061-.146-.116-.219-.173a14.127,14.127,0,0,0,.917-2.093c.1.025.2.053.3.074a4.577,4.577,0,0,0,1.13.1,4.542,4.542,0,0,0-.928-.652c-.1-.055-.2-.1-.3-.151a14.126,14.126,0,0,0,.446-2.1l.03,0a4.529,4.529,0,0,0,1.1-.232A4.469,4.469,0,0,0,181.69,181c.04-.433.063-.871.063-1.314,0-.363-.017-.722-.044-1.079.079-.027.159-.051.237-.081a4.541,4.541,0,0,0,1-.523,4.545,4.545,0,0,0-1.128-.053c-.058,0-.115.013-.173.018a14.047,14.047,0,0,0-.387-1.986c.073-.037.149-.07.222-.109a4.572,4.572,0,0,0,.931-.647,4.564,4.564,0,0,0-1.13.093c-.069.013-.136.033-.2.049a13.984,13.984,0,0,0-.763-1.9c.06-.053.122-.1.181-.158a4.705,4.705,0,0,0,.74-.879,4.721,4.721,0,0,0-1.079.4c-.046.023-.09.051-.136.075a14.221,14.221,0,0,0-1.318-1.988,11.626,11.626,0,0,1,14.917.251,14.118,14.118,0,0,0-1.185,1.86c-.119-.068-.237-.136-.36-.2a4.718,4.718,0,0,0-1.079-.4,4.694,4.694,0,0,0,.741.879c.124.118.253.23.385.338a14.025,14.025,0,0,0-.7,1.78c-.158-.042-.316-.081-.477-.113a4.561,4.561,0,0,0-1.13-.093,4.572,4.572,0,0,0,.931.647c.158.085.319.163.481.236a14.052,14.052,0,0,0-.356,1.89c-.154-.02-.308-.039-.464-.049a4.545,4.545,0,0,0-1.128.053,4.547,4.547,0,0,0,1,.523c.174.067.348.126.525.179-.022.324-.037.651-.037.981,0,.426.021.847.058,1.264-.1.016-.191.029-.286.049a4.5,4.5,0,0,0-1.068.357,4.531,4.531,0,0,0,1.1.232c.108.01.217.012.325.018a14.026,14.026,0,0,0,.409,1.958c-.19.084-.378.173-.562.274a4.542,4.542,0,0,0-.928.652,4.574,4.574,0,0,0,1.13-.1c.194-.039.385-.088.572-.142a14.13,14.13,0,0,0,.858,2c-.146.108-.289.22-.427.338a4.681,4.681,0,0,0-.782.837,4.658,4.658,0,0,0,1.095-.337c.156-.068.309-.143.458-.221a14.149,14.149,0,0,0,1.182,1.705,11.63,11.63,0,0,1-15.5.256Zm16.552-1.357a12.65,12.65,0,0,1-.97-1.433c.051-.042.106-.08.157-.124a4.593,4.593,0,0,0,.781-.838,4.6,4.6,0,0,0-1.1.337c-.05.022-.1.048-.148.071a12.543,12.543,0,0,1-.758-1.8c.028-.015.057-.028.085-.043a4.508,4.508,0,0,0,.927-.653,4.508,4.508,0,0,0-1.13.1c-.021,0-.04.01-.061.015a12.518,12.518,0,0,1-.336-1.578c.113-.018.226-.034.339-.058a4.472,4.472,0,0,0,1.068-.357,4.447,4.447,0,0,0-1.1-.233c-.128-.013-.256-.017-.383-.021q-.054-.577-.055-1.167c0-.236.008-.469.021-.7.039,0,.077.01.116.012a4.442,4.442,0,0,0,1.128-.054,4.479,4.479,0,0,0-1-.523c-.063-.024-.128-.043-.192-.065a12.507,12.507,0,0,1,.317-1.774c.048.011.1.025.145.035a4.508,4.508,0,0,0,1.13.091,4.506,4.506,0,0,0-.93-.648c-.057-.031-.116-.056-.174-.085a12.618,12.618,0,0,1,.555-1.473c.055.03.108.062.164.09a4.64,4.64,0,0,0,1.079.4,4.616,4.616,0,0,0-.74-.88c-.071-.067-.146-.128-.219-.192a12.757,12.757,0,0,1,1.034-1.676,11.633,11.633,0,0,1,.249,15.227Z" transform="translate(-171.844 -165.831)"/>
  </g>
</svg>
