<svg xmlns="http://www.w3.org/2000/svg" width="29.761" height="29.76" viewBox="0 0 29.761 29.76">
  <defs>
    <style>
      .cls-1 {
        fill: #ff9000;
        stroke: rgba(0,0,0,0);
      }
    </style>
  </defs>
  <g id="Basektball_Icon" data-name="Basektball Icon" transform="translate(0.5 0.5)">
    <path id="Path_2" data-name="Path 2" class="cls-1" d="M404.727,61.741a14.38,14.38,0,1,0,14.38-14.38A14.38,14.38,0,0,0,404.727,61.741Zm12.5-8.131c.051,1.838-1.636,3.741-2.672,4.91-.125.141-.242.273-.348.4s-.244.281-.379.433l-.061.069a19.6,19.6,0,0,0-3.933,5.829,13.391,13.391,0,0,0-.667,2.835,11.722,11.722,0,0,1-1.354-9.537,18.144,18.144,0,0,1,3.65-2.876A15.29,15.29,0,0,1,417.225,53.61Zm-6.533.816q-.728.436-1.416.933a11.805,11.805,0,0,1,4.6-4.082l.077-.013a3.713,3.713,0,0,1,.576-.041,2.644,2.644,0,0,1,2.252.973A16.758,16.758,0,0,0,410.692,54.426Zm6.068-4.14a11.649,11.649,0,0,1,2.348-.238c.36,0,.724.018,1.1.054.085.493.184,1.172.27,2.026a14.387,14.387,0,0,0-2.119-.078A3.434,3.434,0,0,0,416.76,50.286Zm3.839,3.329a44.084,44.084,0,0,1-.1,6.606,89.852,89.852,0,0,1-2.452,13.3,11.662,11.662,0,0,1-7.5-3.663l0-.033a11.411,11.411,0,0,1,.667-4.092,18.478,18.478,0,0,1,3.653-5.35l.042-.048c.146-.164.282-.32.407-.465.094-.108.2-.226.309-.351l.028-.032c1.2-1.351,3.149-3.554,3.039-5.985A13,13,0,0,1,420.6,53.615Zm1.355,6.735a45.727,45.727,0,0,0,.123-6.465c.621.136,1.219.289,1.785.459a10.805,10.805,0,0,0,1.551,4.221l.32.6c1.362,2.528,2.769,5.142,2.474,8.051a12.3,12.3,0,0,1-.538,2.516l-.065.2a11.775,11.775,0,0,1-8.059,3.633A90.249,90.249,0,0,0,421.954,60.35Zm5.066-1.881-.32-.6a12.289,12.289,0,0,1-1.284-2.993c3.221,1.27,4.526,2.882,4.968,3.59a11.739,11.739,0,0,1-.69,8.462C429.871,63.764,428.422,61.074,427.02,58.469Zm-1.614-5.151a1.909,1.909,0,0,1,.742-.919,11.905,11.905,0,0,1,2.409,2.419A16.954,16.954,0,0,0,425.406,53.318Zm-3.679-2.973a11.6,11.6,0,0,1,3.146,1.219,3.216,3.216,0,0,0-.853,1.3c-.653-.188-1.34-.355-2.051-.5C421.895,51.556,421.807,50.875,421.727,50.346Zm-2.62-1.982a13.411,13.411,0,0,1,2.038.155,13.529,13.529,0,0,0-4.077,0A13.408,13.408,0,0,1,419.107,48.363Z" transform="translate(-404.727 -47.361)"/>
  </g>
</svg>
