<svg xmlns="http://www.w3.org/2000/svg" xmlns:xlink="http://www.w3.org/1999/xlink" width="60.993" height="65.379" viewBox="0 0 60.993 65.379">
  <defs>
    <style>
      .cls-1 {
        fill: none;
      }

      .cls-2 {
        clip-path: url(#clip-path);
      }

      .cls-3 {
        stroke: rgba(0,0,0,0);
        fill: url(#linear-gradient);
      }

      .cls-4 {
        fill: #fff;
      }
    </style>
    <clipPath id="clip-path">
      <rect class="cls-1" width="60.993" height="65.379"/>
    </clipPath>
    <linearGradient id="linear-gradient" x1="0.533" y1="0.421" x2="0.536" y2="0.423" gradientUnits="objectBoundingBox">
      <stop offset="0" stop-color="#3ad076"/>
      <stop offset="1" stop-color="#3cc071"/>
    </linearGradient>
  </defs>
  <g id="Beatem_icon" data-name="Beatem icon" class="cls-2">
    <g id="Group_1" data-name="Group 1" transform="translate(0.25 0.25)">
      <g id="baseGreen">
        <path id="Union_1" data-name="Union 1" class="cls-3" d="M8.634,51.318a30.179,30.179,0,1,1,10.222,6.856l-13.1,6.5Z"/>
      </g>
    </g>
    <circle id="white" class="cls-4" cx="24.697" cy="24.697" r="24.697" transform="translate(6.217 4.009)"/>
    <path id="ballShape" d="M450.232,367.1a27.281,27.281,0,1,1-35.94,13.756A27.345,27.345,0,0,1,450.232,367.1Zm-6.7,22.99a13.47,13.47,0,0,0,1.37-4.572,1.518,1.518,0,0,0-.165-1.005q-2.65-3.731-5.384-7.4a1.52,1.52,0,0,0-.964-.563,25.233,25.233,0,0,0-9.84.956,2.778,2.778,0,0,0-1.842,1.613c-1.1,2.493-2.175,4.994-3.338,7.456a2.748,2.748,0,0,0,.123,2.692,26.527,26.527,0,0,0,5.666,7.022,2.2,2.2,0,0,0,1.55.515c3-.349,5.992-.783,8.981-1.234a1.482,1.482,0,0,0,.924-.612A30.439,30.439,0,0,0,443.531,390.089Zm15.351,8.262c.494-1.3,1.05-2.706,1.556-4.129a1.536,1.536,0,0,0,.046-1.026,26.614,26.614,0,0,0-5.423-8.512,1.584,1.584,0,0,0-1.1-.431q-3.88.347-7.744.839a1.165,1.165,0,0,0-.768.761c-.194.789-.284,3.66-4.253,9.266a1.315,1.315,0,0,0-.092,1.036q2.228,4.008,4.562,7.956a1.336,1.336,0,0,0,.8.59,17.981,17.981,0,0,0,8.761-.573,2.534,2.534,0,0,0,1.266-1.1C457.333,401.539,458.058,399.989,458.882,398.351Zm-44.373-2.13a7.4,7.4,0,0,0,1.165,5.361c1.309,1.76,2.6,3.538,4,5.225a2.357,2.357,0,0,0,1.665.8c.8-.04,3.21-.161,5.209-.468.594-.091,1.323-.419,1.3-1.049a19.3,19.3,0,0,1,1.254-8.012,1.14,1.14,0,0,0-.379-1.442,26.03,26.03,0,0,1-6.133-8,1.089,1.089,0,0,0-.922-.394c-1.462.2-2.907.528-4.368.738C415.475,389.109,414.7,394.277,414.509,396.221Zm24.141,15.408s1.092,2.567,1.757,3.875a3.788,3.788,0,0,0,4,2.026,25.454,25.454,0,0,0,13.2-7.218c.186-.187.4-.534.349-.738-.469-1.752-1-3.487-1.521-5.263a20.6,20.6,0,0,1-10.088.973,1.229,1.229,0,0,0-.855.3C443.218,407.6,441.1,409.428,438.651,411.629Zm-15.278-38.28c1.32,1.309,2.46,2.464,3.636,3.582a.991.991,0,0,0,.807.255,25.615,25.615,0,0,1,10.4-1.222,1.03,1.03,0,0,0,.782-.221,22.179,22.179,0,0,1,5.594-5.49c-1-.767-1.855-1.536-2.817-2.124-1.971-1.205-3.994-2.38-6.461-1.68-2.364.67-4.749,1.291-7.062,2.109C425.845,369.412,424.7,371.628,423.373,373.349Zm-2.719,34.8a4.821,4.821,0,0,0,2.024,4.134,27.1,27.1,0,0,0,14.453,5.76,3.892,3.892,0,0,0,3.207-1.016c-.784-1.7-1.557-3.4-2.357-5.092a.855.855,0,0,0-.51-.372,38.089,38.089,0,0,1-8.84-3.854.943.943,0,0,0-.756-.123A20.037,20.037,0,0,1,420.653,408.146Zm36.2-34.949c-.536.777-.982,1.382-1.378,2.018a1.013,1.013,0,0,0-.137.725,14.2,14.2,0,0,1-.143,7.3,1.571,1.571,0,0,0,.335,1.1,26.35,26.35,0,0,1,5.308,8.238c.112.3.435.659.679.676,1.136.082,2.281.052,3.535.062A26.151,26.151,0,0,0,456.855,373.2Zm-1.892,1.741c.273-.376.593-.863.96-1.312.481-.589.352-.973-.229-1.447a25.958,25.958,0,0,0-15.229-5.964,2.093,2.093,0,0,0-.481.04c1.643,1.239,3.352,2.53,5.069,3.81a2.029,2.029,0,0,0,.537.206,22.589,22.589,0,0,1,3.044,1.093C450.745,372.469,452.791,373.7,454.962,374.938ZM413.892,397.4c0,.078-.037.047,1.236-8.565a55.006,55.006,0,0,0,.126-6.607A22.857,22.857,0,0,0,413.892,397.4Zm10.544-26.687a21.545,21.545,0,0,0-5.556,5.277C421.033,374.6,423.358,373.383,424.436,370.716Z" transform="translate(-408.279 -361.291)"/>
  </g>
</svg>
