<svg xmlns="http://www.w3.org/2000/svg" width="11.978" height="11.978" viewBox="0 0 11.978 11.978">
  <defs>
    <style>
      .cls-1 {
        fill: #53575a;
      }
    </style>
  </defs>
  <g id="Create_league_icon" data-name="Create league icon" transform="translate(0 0)">
    <g id="Group_62" data-name="Group 62" transform="translate(5.19 4.942)">
      <g id="Group_61" data-name="Group 61">
        <path id="Path_142" data-name="Path 142" class="cls-1" d="M222.647,211.233l-.8,1.4h1.6Z" transform="translate(-221.848 -211.233)"/>
      </g>
    </g>
    <g id="Group_64" data-name="Group 64" transform="translate(6.34 7.042)">
      <g id="Group_63" data-name="Group 63">
        <path id="Path_143" data-name="Path 143" class="cls-1" d="M271,301v2.439a3.482,3.482,0,0,0,.7-.144V301Z" transform="translate(-271 -301)"/>
      </g>
    </g>
    <g id="Group_66" data-name="Group 66" transform="translate(4.936 7.042)">
      <g id="Group_65" data-name="Group 65">
        <path id="Path_144" data-name="Path 144" class="cls-1" d="M211,301v2.3a3.487,3.487,0,0,0,.7.144V301Z" transform="translate(-211 -301)"/>
      </g>
    </g>
    <g id="Group_68" data-name="Group 68" transform="translate(2.48 2.48)">
      <g id="Group_67" data-name="Group 67">
        <path id="Path_145" data-name="Path 145" class="cls-1" d="M109.509,106a3.509,3.509,0,0,0-1.755,6.547v-2.429l1.755-3.071,1.755,3.071v2.429A3.509,3.509,0,0,0,109.509,106Z" transform="translate(-106 -106)"/>
      </g>
    </g>
    <g id="Group_70" data-name="Group 70">
      <g id="Group_69" data-name="Group 69">
        <path id="Path_146" data-name="Path 146" class="cls-1" d="M11.978,7.188V4.79l-.934-.271A5.229,5.229,0,0,0,10.6,3.455l.469-.853-1.7-1.7-.853.469A5.231,5.231,0,0,0,7.46.934L7.188,0H4.79L4.518.934a5.23,5.23,0,0,0-1.064.441L2.6.906.906,2.6l.469.853A5.232,5.232,0,0,0,.934,4.518L0,4.79v2.4l.934.271a5.23,5.23,0,0,0,.441,1.064l-.469.853,1.7,1.7.853-.468a5.231,5.231,0,0,0,1.064.441l.271.934h2.4l.271-.934A5.23,5.23,0,0,0,8.523,10.6l.853.469,1.7-1.7L10.6,8.523a5.229,5.229,0,0,0,.441-1.064ZM5.989,10.2A4.211,4.211,0,1,1,10.2,5.989,4.216,4.216,0,0,1,5.989,10.2Z"/>
      </g>
    </g>
  </g>
</svg>
