<svg xmlns="http://www.w3.org/2000/svg" width="9.469" height="9.353" viewBox="0 0 9.469 9.353">
    <defs>
        <clipPath id="prefix__clip-path">
            <path fill="none" d="M0 0H9.469V9.352H0z"/>
        </clipPath>
        <style>
            .prefix__cls-3{fill:#53575a;stroke:#53575a;stroke-width:.3px}
        </style>
    </defs>
    <g id="prefix__edit_icon" clip-path="url(#prefix__clip-path)" data-name="edit icon">
        <path id="prefix__Path_105" d="M8.4 43.971a.227.227 0 0 0-.227.227v2.012a.68.68 0 0 1-.68.68h-6.36a.68.68 0 0 1-.68-.68v-5.9a.681.681 0 0 1 .68-.68h2.012a.227.227 0 1 0 0-.453H1.133A1.134 1.134 0 0 0 0 40.305v5.9a1.134 1.134 0 0 0 1.133 1.133h6.358a1.134 1.134 0 0 0 1.133-1.128V44.2a.227.227 0 0 0-.227-.227zm0 0" class="prefix__cls-3" data-name="Path 105" transform="translate(.15 -38.14)"/>
        <path id="prefix__Path_106" d="M114.273.559a1.02 1.02 0 0 0-1.442 0L108.788 4.6a.226.226 0 0 0-.058.1l-.53 1.921a.227.227 0 0 0 .279.279l1.919-.532a.227.227 0 0 0 .1-.058l4.042-4.043a1.021 1.021 0 0 0 0-1.442zm-4.991 4.19l3.309-3.309 1.067 1.067-3.309 3.309zm-.213.428l.852.853-1.179.327zm5.149-3.23l-.24.24-1.067-1.067.24-.24a.566.566 0 0 1 .8 0l.266.266a.567.567 0 0 1 .001.801zm0 0" class="prefix__cls-3" data-name="Path 106" transform="translate(-105.589 -.111)"/>
    </g>
</svg>
