<svg xmlns="http://www.w3.org/2000/svg" xmlns:xlink="http://www.w3.org/1999/xlink" width="30.41" height="25.136" viewBox="0 0 30.41 25.136">
  <defs>
    <style>
      .cls-1 {
        fill: none;
      }

      .cls-2 {
        clip-path: url(#clip-path);
      }

      .cls-3 {
        fill: #53575a;
        stroke: rgba(0,0,0,0);
      }
    </style>
    <clipPath id="clip-path">
      <rect class="cls-1" width="30.41" height="25.136"/>
    </clipPath>
  </defs>
  <g id="Football_Icon" data-name="Football Icon" class="cls-2">
    <path id="Path_3" data-name="Path 3" class="cls-3" d="M181.2,78.714l.56.294-.245.468-.57-.3q-.259.484-.5.992l-.714-.343q.251-.523.516-1.017l-.774-.405.246-.467.782.41q.425-.753.877-1.441l-.71-.433.275-.451.73.445c.312-.456.633-.891.958-1.3l-.679-.4.269-.455.744.44a14.99,14.99,0,0,1,1.094-1.245l-.613-.543.351-.4.629.558q.588-.6,1.176-1.121l-.607-.7.4-.345.6.7c.419-.358.833-.687,1.236-.989l-.6-.7.4-.344.63.731c.477-.341.936-.644,1.37-.911h0l-.437-.652.438-.293.451.674c.51-.3,1-.562,1.456-.79l-.433-.783.462-.256.447.808c.579-.272,1.1-.488,1.542-.655l-.211-.848.512-.128.2.795c.654-.226,1.052-.321,1.092-.33l.18.771c-.01,0-.41.1-1.079.334l.16.646-.512.127-.147-.589c-.393.152-.848.341-1.349.575l.346.624-.462.256-.361-.651c-.441.219-.909.468-1.4.754l.392.584-.438.294-.407-.607-.053.033c-.393.243-.808.517-1.239.823l.358.416-.4.344-.386-.449c-.4.3-.817.63-1.237.988l.385.447-.4.345-.383-.445q-.548.489-1.1,1.048l.5.448-.35.394-.521-.462q-.5.533-1,1.127l.553.327-.268.454-.621-.367q-.493.622-.968,1.31l.564.344-.275.451-.584-.357Q181.615,77.986,181.2,78.714Z" transform="translate(-175.262 -61.582)"/>
    <path id="Path_4" data-name="Path 4" class="cls-3" d="M170.7,67.874c-1.522,3.757-1.763,7.1-.631,8.714,1.042,1.488,3.843,2.376,7.49,2.376.3,0,.6-.006.9-.018a22.676,22.676,0,0,0,11.833-3.787,22.273,22.273,0,0,0,7.523-9.836c1.489-3.729,1.726-7.027.62-8.607-1.048-1.5-3.92-2.388-7.685-2.388a24.193,24.193,0,0,0-5.134.561,20.639,20.639,0,0,0-7.332,3.128A22.558,22.558,0,0,0,170.7,67.874Zm10.615,8.313A28,28,0,0,0,188.1,72.6a28.4,28.4,0,0,0,6.42-5.99,18.535,18.535,0,0,1-5.593,6.6A18.772,18.772,0,0,1,181.316,76.186Zm14.823-17.862a1.5,1.5,0,0,1,.2.453,9.99,9.99,0,0,1-.754,3.315c-.069.174-.143.351-.224.529a10.964,10.964,0,0,1-2.781-4.1A14.441,14.441,0,0,1,192,56.9c.217.02.429.044.633.072C194.72,57.256,195.826,57.878,196.139,58.325ZM175.821,75.8a8.9,8.9,0,0,1-3.287-.632,1.272,1.272,0,0,1-.168-.191c-.572-.817-.494-3.381.78-6.524a20.922,20.922,0,0,1,1.97-3.725q.112-.175.236-.343a16.458,16.458,0,0,1,10.557-7.074,20.861,20.861,0,0,1,3.007-.438,13.193,13.193,0,0,0,4.946,8.349,26.4,26.4,0,0,1-6.539,6.273C182.106,75.15,178.168,75.842,175.821,75.8Z" transform="translate(-169.038 -54.078)"/>
  </g>
</svg>
