<svg xmlns="http://www.w3.org/2000/svg" xmlns:xlink="http://www.w3.org/1999/xlink" width="18.026" height="10.978" viewBox="0 0 18.026 10.978">
  <defs>
    <style>
      .cls-1 {
        fill: none;
      }

      .cls-2 {
        clip-path: url(#clip-path);
      }

      .cls-3 {
        fill: #53575a;
      }
    </style>
    <clipPath id="clip-path">
      <rect class="cls-1" width="18.026" height="10.978"/>
    </clipPath>
  </defs>
  <g id="Friends_icon" data-name="Friends icon" class="cls-2" transform="translate(0 0)">
    <path id="Subtraction_5" data-name="Subtraction 5" class="cls-3" d="M7.056,4.013H3.5A4.214,4.214,0,0,0,0,1.4,3,3,0,0,1,2.542,0H4.548a3.013,3.013,0,0,1,3.01,3.01v.5A.5.5,0,0,1,7.056,4.013Z" transform="translate(10.468 4.965)"/>
    <g id="iconfinder_user_account_profile_5402435" transform="translate(12.851 0.483)">
      <circle id="Ellipse_48" data-name="Ellipse 48" class="cls-3" cx="1.888" cy="1.888" r="1.888" transform="translate(0 0)"/>
    </g>
    <g id="iconfinder_user_account_profile_5402435-2" data-name="iconfinder_user_account_profile_5402435" transform="translate(6.318)">
      <circle id="Ellipse_48-2" data-name="Ellipse 48" class="cls-3" cx="2.818" cy="2.818" r="2.818" transform="translate(0 0)"/>
    </g>
    <path id="Subtraction_6" data-name="Subtraction 6" class="cls-3" d="M4.309,4.013H.5a.5.5,0,0,1-.5-.5v-.5A3.013,3.013,0,0,1,3.01,0H5.016a2.994,2.994,0,0,1,2.56,1.426A4.245,4.245,0,0,0,4.309,4.012Z" transform="translate(0 4.965)"/>
    <path id="Path_154" data-name="Path 154" class="cls-3" d="M12.026,16.01v.5a.5.5,0,0,1-.5.5H4.5a.5.5,0,0,1-.5-.5v-.5A3.01,3.01,0,0,1,7.01,13H9.016A3.01,3.01,0,0,1,12.026,16.01Z" transform="translate(1 -6.035)"/>
    <g id="iconfinder_user_account_profile_5402435-3" data-name="iconfinder_user_account_profile_5402435" transform="translate(1.851 0.483)">
      <circle id="Ellipse_48-3" data-name="Ellipse 48" class="cls-3" cx="1.888" cy="1.888" r="1.888" transform="translate(0 0)"/>
    </g>
  </g>
</svg>
