<svg xmlns="http://www.w3.org/2000/svg" xmlns:xlink="http://www.w3.org/1999/xlink" width="34.44" height="26.793" viewBox="0 0 34.44 26.793">
  <defs>
    <style>
      .cls-1 {
        fill: none;
      }

      .cls-2 {
        clip-path: url(#clip-path);
      }

      .cls-3 {
        fill: #3ddde1;
      }
    </style>
    <clipPath id="clip-path">
      <rect class="cls-1" width="34.44" height="26.793"/>
    </clipPath>
  </defs>
  <g id="Hockey_Icon" data-name="Hockey Icon" class="cls-2">
    <path id="Path_6" data-name="Path 6" class="cls-3" d="M24.433.086a1.3,1.3,0,0,0-1.727.738c-.986,2.537-9.078,19.659-11.328,19.695-2.67.042-6.256.089-8.368.1C.529,20.655.274,22.779.1,24.184l-.032.259c-.094.734-.168,1.313.255,1.76.442.465,1.275.6,3.185.59a29.209,29.209,0,0,0,8.889-1.1c3.086-1.1,12.856-23.852,12.939-24.076C25.494,1.2,25.582.438,24.433.086ZM4.825,22.676l-.68,2.343a.6.6,0,0,1-.706.4.522.522,0,0,1-.4-.656l.68-2.343a.6.6,0,0,1,.7-.4A.523.523,0,0,1,4.825,22.676Zm3.8-.06L7.949,24.96a.6.6,0,0,1-.7.4.522.522,0,0,1-.4-.656l.681-2.343a.6.6,0,0,1,.7-.4A.524.524,0,0,1,8.63,22.617Z" transform="translate(0 0)"/>
    <path id="Path_7" data-name="Path 7" class="cls-3" d="M1,.086A1.3,1.3,0,0,1,2.723.824C3.709,3.361,11.8,20.483,14.051,20.519c2.67.042,6.256.089,8.368.1,2.481.039,2.737,2.163,2.906,3.568l.032.259c.094.734.168,1.313-.255,1.76-.442.465-1.275.6-3.185.59a29.209,29.209,0,0,1-8.889-1.1C9.942,24.589.172,1.842.089,1.617-.065,1.2-.153.438,1,.086ZM20.6,22.676l.68,2.343a.6.6,0,0,0,.706.4.522.522,0,0,0,.4-.656l-.68-2.343a.6.6,0,0,0-.7-.4A.523.523,0,0,0,20.6,22.676Zm-3.8-.06.681,2.343a.6.6,0,0,0,.7.4.522.522,0,0,0,.4-.656L17.9,22.36a.6.6,0,0,0-.7-.4A.524.524,0,0,0,16.8,22.617Z" transform="translate(9.011 0)"/>
  </g>
</svg>
