<svg xmlns="http://www.w3.org/2000/svg" width="12.129" height="11.742" viewBox="0 0 12.129 11.742">
  <defs>
    <style>
      .cls-1 {
        fill: #53575a;
      }
    </style>
  </defs>
  <path id="Home_icon" data-name="Home icon" class="cls-1" d="M11.977,10.619a.578.578,0,0,0-.047-.828L6.509,5.049a.676.676,0,0,0-.881.01L.188,10.045a.575.575,0,0,0-.026.826l.136.142a.6.6,0,0,0,.816.063l.406-.364v5.329a.592.592,0,0,0,.592.592h2.12a.592.592,0,0,0,.592-.592V12.313h2.7v3.728a.559.559,0,0,0,.556.591h2.247a.592.592,0,0,0,.592-.592V10.787l.251.22c.138.122.429.024.649-.218Z" transform="translate(0 -4.891)"/>
</svg>
