<svg xmlns="http://www.w3.org/2000/svg" xmlns:xlink="http://www.w3.org/1999/xlink" width="18.679" height="18.083" viewBox="0 0 18.679 18.083">
  <defs>
    <style>
      .cls-1 {
        fill: none;
      }

      .cls-2 {
        clip-path: url(#clip-path);
      }

      .cls-3 {
        fill: #fff;
      }
    </style>
    <clipPath id="clip-path">
      <rect class="cls-1" width="18.679" height="18.083"/>
    </clipPath>
  </defs>
  <g id="Home_icon" data-name="Home icon" class="cls-2" transform="translate(0 0)">
    <path id="Home_icon-2" data-name="Home icon" class="cls-3" d="M18.444,13.713a.891.891,0,0,0-.073-1.274l-8.348-7.3a1.041,1.041,0,0,0-1.357.016L.29,12.828A.886.886,0,0,0,.25,14.1l.21.219a.916.916,0,0,0,1.257.1l.626-.561v8.207a.911.911,0,0,0,.911.911H6.519a.911.911,0,0,0,.911-.911V16.32h4.165v5.742a.861.861,0,0,0,.856.911h3.46a.911.911,0,0,0,.911-.911V13.971l.386.339c.213.187.66.037,1-.336Z" transform="translate(0 -4.89)"/>
  </g>
</svg>
