<svg xmlns="http://www.w3.org/2000/svg" width="11.972" height="11.972" viewBox="0 0 11.972 11.972">
  <defs>
    <style>
      .cls-1 {
        fill: #53575a;
      }
    </style>
  </defs>
  <g id="Info_icon" data-name="Info icon" transform="translate(0 0)">
    <path id="Path_147" data-name="Path 147" class="cls-1" d="M5.986,0a5.986,5.986,0,1,0,5.986,5.986A5.986,5.986,0,0,0,5.986,0ZM7.232,9.277q-.462.182-.737.278a1.945,1.945,0,0,1-.64.1,1.275,1.275,0,0,1-.87-.273.881.881,0,0,1-.31-.693A2.516,2.516,0,0,1,4.7,8.351c.016-.114.041-.241.074-.385L5.158,6.6c.034-.131.063-.255.087-.37a1.642,1.642,0,0,0,.034-.321.494.494,0,0,0-.107-.363.61.61,0,0,0-.412-.1,1.081,1.081,0,0,0-.307.046c-.1.032-.194.061-.268.089l.1-.42q.379-.154.725-.264a2.141,2.141,0,0,1,.654-.11,1.251,1.251,0,0,1,.857.269.892.892,0,0,1,.3.7q0,.089-.021.313a2.092,2.092,0,0,1-.077.411L6.342,7.836c-.031.109-.059.234-.085.373a1.972,1.972,0,0,0-.037.317.456.456,0,0,0,.121.369.678.678,0,0,0,.419.1,1.216,1.216,0,0,0,.317-.049,1.8,1.8,0,0,0,.256-.086ZM7.164,3.765a.916.916,0,0,1-.646.249.925.925,0,0,1-.649-.249.8.8,0,0,1-.27-.6.8.8,0,0,1,.27-.606A.918.918,0,0,1,6.518,2.3a.908.908,0,0,1,.646.252.816.816,0,0,1,0,1.211Z" transform="translate(0 0)"/>
  </g>
</svg>
