<svg xmlns="http://www.w3.org/2000/svg" xmlns:xlink="http://www.w3.org/1999/xlink" width="12.372" height="9.452" viewBox="0 0 12.372 9.452">
  <defs>
    <style>
      .cls-1 {
        fill: none;
      }

      .cls-2 {
        clip-path: url(#clip-path);
      }

      .cls-3 {
        fill: #53575a;
      }
    </style>
    <clipPath id="clip-path">
      <rect class="cls-1" width="12.372" height="9.452"/>
    </clipPath>
  </defs>
  <g id="Legal_icon" data-name="Legal icon" class="cls-2" transform="translate(0 0)">
    <path id="Path_159" data-name="Path 159" class="cls-3" d="M35.275,35.049h0a.436.436,0,0,0-.31.129.441.441,0,0,0-.13.314V42.13a.444.444,0,0,0,.443.443,5.476,5.476,0,0,1,3.948,1.464V37.089a.424.424,0,0,0-.061-.224A4.47,4.47,0,0,0,35.275,35.049Z" transform="translate(-33.382 -35.049)"/>
    <path id="Path_160" data-name="Path 160" class="cls-3" d="M161.142,42.129V35.491a.441.441,0,0,0-.13-.314.436.436,0,0,0-.31-.129h0a4.47,4.47,0,0,0-3.889,1.816.424.424,0,0,0-.061.224v6.947a5.476,5.476,0,0,1,3.948-1.464A.444.444,0,0,0,161.142,42.129Z" transform="translate(-150.222 -35.048)"/>
    <path id="Path_161" data-name="Path 161" class="cls-3" d="M176.268,71.8h-.321v5.55a1.133,1.133,0,0,1-1.129,1.13,4.91,4.91,0,0,0-3.336,1.139,10.657,10.657,0,0,1,4.687.09.443.443,0,0,0,.542-.431V72.244A.443.443,0,0,0,176.268,71.8Z" transform="translate(-164.339 -70.27)"/>
    <path id="Path_162" data-name="Path 162" class="cls-3" d="M.764,77.351V71.8H.443A.443.443,0,0,0,0,72.244v7.035a.443.443,0,0,0,.542.431,10.657,10.657,0,0,1,4.687-.09,4.91,4.91,0,0,0-3.336-1.139A1.133,1.133,0,0,1,.764,77.351Z" transform="translate(0 -70.27)"/>
  </g>
</svg>
