<svg xmlns="http://www.w3.org/2000/svg" width="7.875" height="10.5" viewBox="0 0 7.875 10.5">
    <defs>
        <clipPath id="prefix__clip-path">
            <path fill="none" d="M0 0H7.875V10.5H0z"/>
        </clipPath>
    </defs>
    <g id="prefix__lock_icon" clip-path="url(#prefix__clip-path)" data-name="lock icon">
        <g id="prefix__Group_50" data-name="Group 50">
            <path id="prefix__Path_107" fill="#53575a" d="M71.656 3.938H71v-.876a3.062 3.062 0 0 0-6.125 0v.875h-.656a.219.219 0 0 0-.219.219v5.469a.876.876 0 0 0 .875.875H71a.876.876 0 0 0 .875-.875V4.156a.219.219 0 0 0-.219-.218zm-3.064 4.57a.219.219 0 0 1-.217.243H67.5a.219.219 0 0 1-.217-.243l.138-1.241a.865.865 0 0 1-.358-.7.875.875 0 1 1 1.75 0 .865.865 0 0 1-.358.7zm1.1-4.57h-3.5v-.876a1.75 1.75 0 0 1 3.5 0z" data-name="Path 107" transform="translate(-64)"/>
        </g>
    </g>
</svg>
