<svg xmlns="http://www.w3.org/2000/svg" xmlns:xlink="http://www.w3.org/1999/xlink" width="24.882" height="17.772" viewBox="0 0 24.882 17.772">
  <defs>
    <style>
      .cls-1 {
        fill: none;
      }

      .cls-2 {
        clip-path: url(#clip-path);
      }

      .cls-3 {
        fill: #fff;
      }
    </style>
    <clipPath id="clip-path">
      <rect class="cls-1" width="24.882" height="17.773"/>
    </clipPath>
  </defs>
  <g id="Menu_icon" data-name="Menu icon" class="cls-2" transform="translate(0 0)">
    <path id="Menu_icon-2" data-name="Menu icon" class="cls-3" d="M3.777,9.555H25.1A1.777,1.777,0,1,0,25.1,6H3.777a1.777,1.777,0,1,0,0,3.555ZM25.1,13.109H3.777a1.777,1.777,0,0,0,0,3.555H25.1a1.777,1.777,0,1,0,0-3.555Zm0,7.109H3.777a1.777,1.777,0,1,0,0,3.555H25.1a1.777,1.777,0,1,0,0-3.555Z" transform="translate(-2 -6)"/>
  </g>
</svg>
