<svg xmlns="http://www.w3.org/2000/svg" width="29.192" height="29.192" viewBox="0 0 29.192 29.192">
  <defs>
    <style>
      .cls-1 {
        fill: #53575a;
        stroke: rgba(0,0,0,0);
      }
    </style>
  </defs>
  <g id="Soccer_Icon" data-name="Soccer Icon" transform="translate(0.5 0.5)">
    <path id="Path_1" data-name="Path 1" class="cls-1" d="M288.437,62.345a14.1,14.1,0,1,0,14.1-14.1A14.1,14.1,0,0,0,288.437,62.345Zm7.854,9.924a6.256,6.256,0,0,1-.625-.143,12.009,12.009,0,0,1-4.647-6.481,6.987,6.987,0,0,0,2.416.581,12.6,12.6,0,0,0,2.9,3.747A6.377,6.377,0,0,0,296.291,72.269Zm1.256.309-.223-.151a1.118,1.118,0,0,1-.063-.095,5.322,5.322,0,0,1-.018-2.107,8.077,8.077,0,0,0,3.537-1.125,9.258,9.258,0,0,0,4.685,1.756l.015,1.806a9.779,9.779,0,0,1-6.353.922l-.02-.065-.209-.031-.021,0c-.195-.117-.792-.481-1.341-.891Zm12.537-10.76c.127-.16.289-.375.463-.632a7.639,7.639,0,0,0,1.222-2.755,9.172,9.172,0,0,1,1.937,1.381c.179.426.458,1.107.812,2.016a11.983,11.983,0,0,1-.04,1.558,8.258,8.258,0,0,1-1.215,2.563,12.036,12.036,0,0,1-1.291,1.584c-.657-.239-1.095-.406-1.373-.514A13.129,13.129,0,0,0,310.084,61.818Zm-14.878.149a6.882,6.882,0,0,0-.74.916,8.415,8.415,0,0,0-1.106,2.4,6.516,6.516,0,0,1-2.177-.593l-.077-.047c-.112-.246-.349-.774-.509-1.187a12.114,12.114,0,0,1-.031-2,.442.442,0,0,0,.044-.1,14.789,14.789,0,0,1,1.856-4.141,7.313,7.313,0,0,1,.548-.719c.569.143,1.04.257,1.387.34A12.19,12.19,0,0,0,295.206,61.967ZM300.9,50.406a12.041,12.041,0,0,1,5.57.545,8.1,8.1,0,0,0,.77.681,5.709,5.709,0,0,1,.45,2.05,11.339,11.339,0,0,0-3.441.938,10.875,10.875,0,0,0-4.646-1.65c-.092-.544-.182-1.1-.242-1.468A7.123,7.123,0,0,1,300.9,50.406Zm11.042,19.33a7.241,7.241,0,0,0,.52-1.364,14.041,14.041,0,0,0,.984-1.09A12.2,12.2,0,0,1,311.94,69.736Zm-3.318-15.906a5.891,5.891,0,0,0-.292-1.943h.189c.256.148.507.305.747.468a11.888,11.888,0,0,1,4.538,5.832l-.1.38a14.729,14.729,0,0,0-2.107-1.3A22.3,22.3,0,0,0,308.621,53.831Zm.989,13.5a9.7,9.7,0,0,1-3.652,2.614,8.412,8.412,0,0,1-4.721-1.681,21.053,21.053,0,0,0-.457-4.134,30.258,30.258,0,0,0,4.268-3.619l4.147,1.6A11.962,11.962,0,0,1,309.61,67.335Zm-1.634,5.655a11.921,11.921,0,0,1-3.667,1.169,11.21,11.21,0,0,0,1.921-.837A8.181,8.181,0,0,0,307.976,72.99ZM296.123,61.72a11.342,11.342,0,0,1-.778-5.014c.016-.02.033-.038.05-.057l.017-.018.013-.02-.254-.194.264.179a7.811,7.811,0,0,1,3.687-2.734,10.278,10.278,0,0,1,4.646,1.565c.262,1.766.571,3.508.72,4.323a30.955,30.955,0,0,1-4.176,3.571C299.7,63.084,297.469,62.213,296.123,61.72Z" transform="translate(-288.437 -48.249)"/>
  </g>
</svg>
