<svg xmlns="http://www.w3.org/2000/svg" xmlns:xlink="http://www.w3.org/1999/xlink" width="191.5" height="197.767" viewBox="0 0 191.5 197.767">
  <defs>
    <style>
      .cls-1 {
        fill: none;
      }

      .cls-2 {
        clip-path: url(#clip-path);
      }

      .cls-3 {
        opacity: 0.71;
        fill: url(#linear-gradient);
      }

      .cls-4 {
        clip-path: url(#clip-path-2);
      }

      .cls-5 {
        stroke: rgba(0,0,0,0);
        fill: url(#linear-gradient-2);
      }

      .cls-6 {
        fill: #fff;
      }
    </style>
    <clipPath id="clip-path">
      <rect class="cls-1" width="191.5" height="197.767"/>
    </clipPath>
    <linearGradient id="linear-gradient" x1="0.5" y1="0.5" x2="0.5" y2="0.811" gradientUnits="objectBoundingBox">
      <stop offset="0" stop-color="#fff"/>
      <stop offset="1" stop-color="#d9d9d9"/>
    </linearGradient>
    <clipPath id="clip-path-2">
      <rect class="cls-1" width="178.668" height="191.517"/>
    </clipPath>
    <linearGradient id="linear-gradient-2" x1="0.533" y1="0.421" x2="0.536" y2="0.423" gradientUnits="objectBoundingBox">
      <stop offset="0" stop-color="#3ad076"/>
      <stop offset="1" stop-color="#3cc071"/>
    </linearGradient>
  </defs>
  <g id="Beatem_icon" data-name="Beatem icon" class="cls-2">
    <circle id="Ellipse_3" data-name="Ellipse 3" class="cls-3" cx="95.75" cy="95.75" r="95.75"/>
    <g id="Icon" class="cls-4" transform="translate(5.873 6.25)">
      <g id="Group_1" data-name="Group 1" transform="translate(0.25 0.25)">
        <g id="baseGreen">
          <path id="Union_1" data-name="Union 1" class="cls-5" d="M25.43,151.407a88.808,88.808,0,1,1,30.107,20.229L16.955,190.812Z"/>
        </g>
      </g>
      <circle id="white" class="cls-6" cx="72.345" cy="72.345" r="72.345" transform="translate(18.211 11.745)"/>
      <path id="ballShape" d="M524.205,371.633c40.244,18.024,58.465,65.275,40.639,105.393-17.926,40.348-65.684,58.721-105.61,40.634-40.4-18.3-58.4-65.511-40.31-105.73C436.93,371.9,484.3,353.764,524.205,371.633Zm-19.629,67.345c3.378-7.347,3.553-10.4,4.014-13.394a4.445,4.445,0,0,0-.483-2.944q-7.764-10.929-15.772-21.688a4.454,4.454,0,0,0-2.824-1.648c-9.765-.8-19.4-.208-28.826,2.8a8.139,8.139,0,0,0-5.394,4.725c-3.21,7.3-6.373,14.628-9.779,21.84a8.05,8.05,0,0,0,.36,7.887c4.213,7.937,10.056,14.555,16.6,20.57a6.44,6.44,0,0,0,4.54,1.509c8.789-1.023,17.554-2.293,26.307-3.616a4.343,4.343,0,0,0,2.706-1.792A89.178,89.178,0,0,0,504.576,438.979Zm44.967,24.2c1.448-3.808,3.076-7.927,4.558-12.1a4.5,4.5,0,0,0,.136-3.006c-4.007-9.125-8.7-17.844-15.885-24.936a4.641,4.641,0,0,0-3.229-1.262q-11.364,1.016-22.683,2.457a3.412,3.412,0,0,0-2.251,2.231c-.567,2.312-.832,10.722-12.458,27.144a3.854,3.854,0,0,0-.27,3.035q6.527,11.742,13.363,23.3a3.914,3.914,0,0,0,2.355,1.729,52.672,52.672,0,0,0,25.664-1.678,7.425,7.425,0,0,0,3.707-3.225C545,472.522,547.128,467.981,549.543,463.182ZM419.56,456.941c-.542,5.526-.082,11.006,3.413,15.7,3.835,5.157,7.623,10.364,11.725,15.3a6.905,6.905,0,0,0,4.876,2.343c2.354-.117,9.4-.473,15.259-1.371,1.74-.268,3.877-1.228,3.8-3.074a56.526,56.526,0,0,1,3.674-23.471c.736-1.86.247-2.934-1.11-4.224-7.214-6.86-13.791-14.218-17.966-23.442a3.189,3.189,0,0,0-2.7-1.154c-4.283.6-8.515,1.546-12.8,2.162C422.39,436.109,420.12,451.248,419.56,456.941Zm70.718,45.136s3.2,7.519,5.147,11.351a11.1,11.1,0,0,0,11.719,5.936,74.562,74.562,0,0,0,38.682-21.145c.545-.549,1.181-1.565,1.021-2.162-1.375-5.131-2.926-10.216-4.456-15.418a60.34,60.34,0,0,1-29.551,2.85,3.6,3.6,0,0,0-2.5.871C503.658,490.263,497.453,495.63,490.278,502.077ZM445.524,389.943c3.867,3.833,7.207,7.217,10.652,10.492a2.9,2.9,0,0,0,2.363.748c9.889-3.581,20.1-4.2,30.475-3.58a3.017,3.017,0,0,0,2.291-.648,64.972,64.972,0,0,1,16.388-16.081c-2.942-2.245-5.434-4.5-8.25-6.222-5.773-3.53-11.7-6.971-18.928-4.923-6.925,1.963-13.912,3.781-20.687,6.179C452.766,378.409,449.4,384.9,445.524,389.943Zm-7.965,101.931a14.121,14.121,0,0,0,5.929,12.11,79.373,79.373,0,0,0,42.337,16.874,11.4,11.4,0,0,0,9.394-2.975c-2.3-4.991-4.56-9.972-6.9-14.915a2.5,2.5,0,0,0-1.493-1.091c-9.2-2.479-17.655-6.617-25.9-11.291a2.761,2.761,0,0,0-2.214-.36A58.691,58.691,0,0,1,437.559,491.874ZM543.6,389.5c-1.571,2.277-2.877,4.047-4.035,5.912a2.966,2.966,0,0,0-.4,2.123c2.13,7.185,1.174,14.261-.42,21.375a4.6,4.6,0,0,0,.98,3.217c1.473,2.006,10.272,10.246,15.548,24.132.33.871,1.275,1.93,1.99,1.979,3.328.239,6.681.153,10.354.182C568.108,425.379,560.339,405.908,543.6,389.5Zm-5.544,5.1c.8-1.1,1.738-2.529,2.813-3.844,1.408-1.724,1.03-2.85-.671-4.239a76.039,76.039,0,0,0-44.609-17.47,6.125,6.125,0,0,0-1.408.116c4.813,3.628,9.819,7.41,14.85,11.16a5.948,5.948,0,0,0,1.572.6c2.986,1.047,6.145,1.752,8.917,3.2C525.708,387.363,531.7,390.972,538.061,394.6ZM417.752,460.406c-.012.23-.108.137,3.62-25.09a161.147,161.147,0,0,0,.37-19.355A66.956,66.956,0,0,0,417.752,460.406Zm30.888-78.175a63.109,63.109,0,0,0-16.276,15.457C438.669,393.595,445.482,390.041,448.64,382.231Z" transform="translate(-401.311 -354.62)"/>
    </g>
  </g>
</svg>
