<svg xmlns="http://www.w3.org/2000/svg" xmlns:xlink="http://www.w3.org/1999/xlink" width="722.001" height="439.501" viewBox="0 0 722.001 439.501">
  <defs>
    <style>
      .cls-1 {
        fill: none;
      }

      .cls-2 {
        clip-path: url(#clip-path);
      }

      .cls-3 {
        fill: #a7caa1;
      }

      .cls-4 {
        fill: url(#linear-gradient);
      }
    </style>
    <clipPath id="clip-path">
      <rect class="cls-1" width="722.001" height="439.501"/>
    </clipPath>
    <linearGradient id="linear-gradient" x1="0.5" x2="0.5" y2="1" gradientUnits="objectBoundingBox">
      <stop offset="0" stop-color="#60d885"/>
      <stop offset="1" stop-color="#4d9567"/>
    </linearGradient>
  </defs>
  <g id="Green_Elipse" data-name="Green Elipse" class="cls-2">
    <path id="Subtraction_3" data-name="Subtraction 3" class="cls-3" d="M788,789a1275.3,1275.3,0,0,1-190.332-14.066C537.95,765.889,480.7,752.562,427.5,735.324V358.5h721V735.323c-53.2,17.239-110.451,30.566-170.168,39.611A1275.292,1275.292,0,0,1,788,789Z" transform="translate(-426.5 -349.5)"/>
    <path id="Subtraction_4" data-name="Subtraction 4" class="cls-4" d="M788,789a1275.3,1275.3,0,0,1-190.332-14.066C537.95,765.889,480.7,752.562,427.5,735.324V358.5h721V735.323c-53.2,17.239-110.451,30.566-170.168,39.611A1275.292,1275.292,0,0,1,788,789Z" transform="translate(-427.5 -358.5)"/>
  </g>
</svg>
