<svg xmlns="http://www.w3.org/2000/svg" width="18.441" height="9.219" viewBox="0 0 18.441 9.219">
    <defs>
        <clipPath id="clip-path">
            <path fill="none" d="M0 0H18.442V9.219H0z"/>
        </clipPath>
        <style>
            .cls-3{fill:#fff}
        </style>
    </defs>
    <g id="Player_icon" clip-path="url(#clip-path)" data-name="Player icon">
        <path id="Path_22" d="M61.262 206.324a2.462 2.462 0 1 1 2.462-2.462 2.466 2.466 0 0 1-2.462 2.462zm0-3.688a1.231 1.231 0 1 0 1.231 1.231 1.233 1.233 0 0 0-1.231-1.232z" class="cls-3" data-name="Path 22" transform="translate(-58.189 -199.567)"/>
        <path id="Path_23" d="M163.308 274.3h-1.231a3.073 3.073 0 0 0-6.146 0H154.7a4.3 4.3 0 0 1 8.608 0z" class="cls-3" data-name="Path 23" transform="translate(-149.781 -265.085)"/>
        <path id="Path_24" d="M335.062 206.324a2.462 2.462 0 1 1 2.462-2.462 2.466 2.466 0 0 1-2.462 2.462zm0-3.688a1.231 1.231 0 1 0 1.231 1.231 1.233 1.233 0 0 0-1.231-1.232z" class="cls-3" data-name="Path 24" transform="translate(-319.689 -199.567)"/>
        <path id="Path_25" d="M185.173 166.746a3.073 3.073 0 1 1 3.073-3.073 3.077 3.077 0 0 1-3.073 3.073zm0-4.919a1.846 1.846 0 1 0 1.846 1.846 1.849 1.849 0 0 0-1.846-1.847z" class="cls-3" data-name="Path 25" transform="translate(-175.95 -160.6)"/>
        <path id="Path_26" d="M320.131 287.388H318.9v-.615a3.073 3.073 0 1 1 6.146 0h-1.231a1.846 1.846 0 1 0-3.693 0v.615z" class="cls-3" data-name="Path 26" transform="translate(-306.604 -278.17)"/>
        <path id="Path_27" d="M51.35 287.388h-1.231v-.615a1.846 1.846 0 1 0-3.693 0H45.2a3.073 3.073 0 1 1 6.146 0v.615z" class="cls-3" data-name="Path 27" transform="translate(-45.2 -278.17)"/>
    </g>
</svg>
