<svg xmlns="http://www.w3.org/2000/svg" width="40.716" height="39.554" viewBox="0 0 40.716 39.554">
    <defs>
        <clipPath id="prefix__clip-path">
            <path fill="none" d="M0 0H40.716V39.554H0z"/>
        </clipPath>
        <style>
            .prefix__cls-3{fill:#f6ae3c}.prefix__cls-4{fill:#fdd077}.prefix__cls-5{fill:#ffdea6}
        </style>
    </defs>
    <g id="prefix__First_place_icon" clip-path="url(#prefix__clip-path)" data-name="First place icon">
        <path id="prefix__Path_58" d="M325.2 363.445c-.605 0-5.986-.075-8.578-2.668s-2.667-7.973-2.667-8.578a1.163 1.163 0 0 1 1.163-1.163h5.429a1.163 1.163 0 1 1 0 2.327h-4.208c.153 1.767.648 4.489 1.928 5.77 1.622 1.622 5.555 1.984 6.934 1.986a1.163 1.163 0 0 1 0 2.327z" class="prefix__cls-3" data-name="Path 58" transform="translate(-313.954 -343.28)"/>
        <path id="prefix__Path_59" d="M1146.217 363.445c.605 0 5.986-.075 8.578-2.668s2.667-7.973 2.667-8.578a1.163 1.163 0 0 0-1.163-1.163h-5.429a1.163 1.163 0 0 0 0 2.327h4.208c-.153 1.767-.647 4.489-1.928 5.77-1.622 1.622-5.555 1.984-6.934 1.986a1.163 1.163 0 0 0 0 2.327z" class="prefix__cls-3" data-name="Path 59" transform="translate(-1116.746 -343.28)"/>
        <path id="prefix__Path_60" d="M683.945 1150.3c0 1.285-3.82 2.327-8.531 2.327s-8.531-1.041-8.531-2.327 3.82-2.327 8.531-2.327 8.531 1.042 8.531 2.327z" class="prefix__cls-3" data-name="Path 60" transform="translate(-654.862 -1113.073)"/>
        <path id="prefix__Path_61" d="M743.726 767.408a11.513 11.513 0 0 0-.776-6.515h-3.1a11.516 11.516 0 0 0-.775 6.515 8.34 8.34 0 0 1-3.878 8.958l6.2.814 6.2-.814a8.34 8.34 0 0 1-3.871-8.958z" class="prefix__cls-3" data-name="Path 61" transform="translate(-720.847 -739.177)"/>
        <path id="prefix__Path_62" d="M706.514 1176.982a.717.717 0 0 1 .027.156c0 1.286-3.473 2.327-7.756 2.327a15.359 15.359 0 0 1-6.9-1.27c.505 1.034 3.747 1.834 7.68 1.834 4.283 0 7.756-.947 7.756-2.115-.005-.334-.298-.651-.807-.932z" class="prefix__cls-4" data-name="Path 62" transform="translate(-679.008 -1141.094)"/>
        <path id="prefix__Path_63" d="M461.959 244.79s2.068 25.51 15.511 25.51c12.065 0 15.511-25.508 15.511-25.508z" class="prefix__cls-4" data-name="Path 63" transform="translate(-456.918 -240.653)"/>
        <g id="prefix__Group_28" data-name="Group 28" transform="translate(18.226 4.622)">
            <path id="prefix__Path_64" d="M1130.342 267.384a62.375 62.375 0 0 0 1.857-8.347h-5.213a63.056 63.056 0 0 1-1.663 9.536 41.875 41.875 0 0 0 5.019-1.189z" class="prefix__cls-5" data-name="Path 64" transform="translate(-1115.913 -259.037)"/>
            <path id="prefix__Path_65" d="M857.448 608.3c-1.661 4.764-4.286 9.171-8.407 10.2a9.029 9.029 0 0 0 2.118.249c5.442 0 8.962-5.683 11.134-11.435a49.229 49.229 0 0 1-4.845.986z" class="prefix__cls-5" data-name="Path 65" transform="translate(-849.041 -595.457)"/>
        </g>
        <path id="prefix__Path_66" d="M492.981 127.473c0 2.284-6.945 4.136-15.511 4.136s-15.511-1.852-15.511-4.136 6.945-4.137 15.511-4.137 15.511 1.853 15.511 4.137z" class="prefix__cls-3" data-name="Path 66" transform="translate(-456.918 -123.336)"/>
        <path id="prefix__Path_67" fill="#e59c33" d="M535.414 149.212c0 1.713-6.25 3.1-13.96 3.1s-13.96-1.39-13.96-3.1 6.25-3.1 13.96-3.1 13.96 1.388 13.96 3.1z" data-name="Path 67" transform="translate(-500.902 -145.334)"/>
        <path id="prefix__Path_68" d="M794.955 421.054l1.462 3.123 3.421.425-2.519 2.354.653 3.385-3.017-1.668-3.017 1.668.653-3.385-2.518-2.354 3.421-.425z" class="prefix__cls-3" data-name="Path 68" transform="translate(-773.856 -410.914)"/>
    </g>
</svg>
