<svg xmlns="http://www.w3.org/2000/svg" width="19.244" height="9.62" viewBox="0 0 19.244 9.62">
    <defs>
        <clipPath id="prefix__clip-path">
            <path fill="none" d="M0 0H19.244V9.62H0z"/>
        </clipPath>
        <style>
            .prefix__cls-3{fill:#8a8d8f}
        </style>
    </defs>
    <g id="prefix__Player_icon" clip-path="url(#prefix__clip-path)" data-name="Player icon">
        <g id="prefix__Group_12" data-name="Group 12" transform="translate(.638 1.913)">
            <path id="prefix__Path_22" d="M61.369 206.538a2.569 2.569 0 1 1 2.569-2.569 2.573 2.573 0 0 1-2.569 2.569zm0-3.849a1.285 1.285 0 1 0 1.285 1.285 1.286 1.286 0 0 0-1.285-1.285z" class="prefix__cls-3" data-name="Path 22" transform="translate(-58.8 -201.4)"/>
        </g>
        <g id="prefix__Group_13" data-name="Group 13" transform="translate(5.133 5.129)">
            <path id="prefix__Path_23" d="M163.682 274.491H162.4a3.207 3.207 0 0 0-6.413 0H154.7a4.491 4.491 0 0 1 8.982 0z" class="prefix__cls-3" data-name="Path 23" transform="translate(-154.7 -270)"/>
        </g>
        <g id="prefix__Group_14" data-name="Group 14" transform="translate(13.473 1.913)">
            <path id="prefix__Path_24" d="M335.169 206.538a2.569 2.569 0 1 1 2.569-2.569 2.573 2.573 0 0 1-2.569 2.569zm0-3.849a1.285 1.285 0 1 0 1.285 1.285 1.286 1.286 0 0 0-1.285-1.285z" class="prefix__cls-3" data-name="Path 24" transform="translate(-332.6 -201.4)"/>
        </g>
        <g id="prefix__Group_15" data-name="Group 15" transform="translate(6.418)">
            <path id="prefix__Path_25" d="M185.307 167.013a3.207 3.207 0 1 1 3.207-3.207 3.211 3.211 0 0 1-3.207 3.207zm0-5.133a1.927 1.927 0 1 0 1.927 1.927 1.93 1.93 0 0 0-1.927-1.927z" class="prefix__cls-3" data-name="Path 25" transform="translate(-182.1 -160.6)"/>
        </g>
        <g id="prefix__Group_16" data-name="Group 16" transform="translate(12.831 5.771)">
            <path id="prefix__Path_26" d="M320.185 287.549H318.9v-.642a3.207 3.207 0 1 1 6.413 0h-1.285a1.927 1.927 0 1 0-3.854 0v.642z" class="prefix__cls-3" data-name="Path 26" transform="translate(-318.9 -283.7)"/>
        </g>
        <g id="prefix__Group_17" data-name="Group 17" transform="translate(0 5.771)">
            <path id="prefix__Path_27" d="M51.618 287.549h-1.285v-.642a1.927 1.927 0 1 0-3.854 0H45.2a3.207 3.207 0 1 1 6.413 0v.642z" class="prefix__cls-3" data-name="Path 27" transform="translate(-45.2 -283.7)"/>
        </g>
    </g>
</svg>
