<svg xmlns="http://www.w3.org/2000/svg" width="42.889" height="32.306" viewBox="0 0 42.889 32.306">
    <defs>
        <clipPath id="prefix__clip-path">
            <path fill="none" d="M0 0H42.889V32.306H0z"/>
        </clipPath>
        <style>
            .prefix__cls-3{fill:#9dbcc1}.prefix__cls-4{fill:#b7dae2}.prefix__cls-5{fill:#cee6ea}.prefix__cls-7{fill:#f6ae3c}.prefix__cls-8{fill:#fdd077}.prefix__cls-9{fill:#ffdea6}
        </style>
    </defs>
    <g id="prefix__Second_place_icon" clip-path="url(#prefix__clip-path)" data-name="Second place icon">
        <g id="prefix__Group_32" data-name="Group 32" transform="translate(18.671 8.78)">
            <path id="prefix__Path_69" d="M1915.2 358.417c-.36 0-3.56-.045-5.1-1.587s-1.587-4.742-1.587-5.1a.692.692 0 0 1 .692-.692h3.229a.692.692 0 1 1 0 1.384h-2.5a6.132 6.132 0 0 0 1.147 3.432c.965.965 3.3 1.18 4.124 1.181a.692.692 0 0 1 0 1.384z" class="prefix__cls-3" data-name="Path 69" transform="translate(-1908.516 -346.423)"/>
            <path id="prefix__Path_70" d="M2740.308 358.417c.36 0 3.56-.045 5.1-1.587s1.586-4.742 1.586-5.1a.692.692 0 0 0-.692-.692h-3.229a.692.692 0 0 0 0 1.384h2.5a6.128 6.128 0 0 1-1.147 3.432c-.965.965-3.3 1.18-4.124 1.181a.692.692 0 0 0 0 1.384z" class="prefix__cls-3" data-name="Path 70" transform="translate(-2722.779 -346.423)"/>
            <path id="prefix__Path_71" d="M2271.594 1149.357c0 .764-2.272 1.384-5.074 1.384s-5.074-.619-5.074-1.384 2.272-1.384 5.074-1.384 5.074.62 5.074 1.384z" class="prefix__cls-3" data-name="Path 71" transform="translate(-2254.295 -1127.215)"/>
            <path id="prefix__Path_72" d="M2334.831 764.768a6.847 6.847 0 0 0-.461-3.875h-1.845a6.852 6.852 0 0 0-.461 3.875 4.961 4.961 0 0 1-2.306 5.328l3.69.484 3.69-.484a4.961 4.961 0 0 1-2.307-5.328z" class="prefix__cls-3" data-name="Path 72" transform="translate(-2321.223 -747.977)"/>
            <path id="prefix__Path_73" d="M2295.147 1176.982a.415.415 0 0 1 .016.093c0 .765-2.066 1.384-4.613 1.384a9.137 9.137 0 0 1-4.107-.755c.3.615 2.228 1.091 4.568 1.091 2.547 0 4.613-.563 4.613-1.258.001-.199-.174-.388-.477-.555z" class="prefix__cls-4" data-name="Path 73" transform="translate(-2278.788 -1155.636)"/>
            <path id="prefix__Path_74" d="M2056.522 244.79s1.23 15.171 9.226 15.171c7.176 0 9.226-15.171 9.226-15.171z" class="prefix__cls-4" data-name="Path 74" transform="translate(-2053.523 -242.329)"/>
            <g id="prefix__Group_30" data-name="Group 30" transform="translate(10.84 2.749)">
                <path id="prefix__Path_75" d="M2722.871 264a37.1 37.1 0 0 0 1.1-4.965h-3.1a37.49 37.49 0 0 1-.989 5.672 24.909 24.909 0 0 0 2.989-.707z" class="prefix__cls-5" data-name="Path 75" transform="translate(-2714.289 -259.037)"/>
                <path id="prefix__Path_76" d="M2448.6 607.9c-.988 2.833-2.549 5.455-5 6.07a5.373 5.373 0 0 0 1.26.148c3.237 0 5.331-3.38 6.622-6.8a29.242 29.242 0 0 1-2.882.582z" class="prefix__cls-5" data-name="Path 76" transform="translate(-2443.603 -600.264)"/>
            </g>
            <path id="prefix__Path_77" d="M2074.974 125.8c0 1.359-4.131 2.46-9.226 2.46s-9.226-1.1-9.226-2.46 4.131-2.461 9.226-2.461 9.226 1.099 9.226 2.461z" class="prefix__cls-3" data-name="Path 77" transform="translate(-2053.523 -123.336)"/>
            <path id="prefix__Path_78" fill="#8cacaf" d="M2118.663 147.955c0 1.019-3.718 1.845-8.3 1.845s-8.3-.826-8.3-1.845 3.717-1.845 8.3-1.845 8.3.827 8.3 1.845z" data-name="Path 78" transform="translate(-2098.135 -145.649)"/>
            <g id="prefix__Group_31" data-name="Group 31" transform="translate(8.79 7.162)">
                <path id="prefix__Path_79" d="M2344.05 476.872l.5 1.06 1.161.144-.855.8.222 1.149-1.024-.566-1.024.566.222-1.149-.855-.8 1.161-.144z" class="prefix__cls-3" data-name="Path 79" transform="translate(-2342.393 -476.872)"/>
                <path id="prefix__Path_80" d="M2527.213 476.872l.5 1.06 1.161.144-.855.8.222 1.149-1.024-.566-1.024.566.222-1.149-.855-.8 1.161-.144z" class="prefix__cls-3" data-name="Path 80" transform="translate(-2521.845 -476.872)"/>
            </g>
        </g>
        <g id="prefix__Group_36" data-name="Group 36">
            <path id="prefix__Path_58" d="M323.139 361.171c-.494 0-4.889-.061-7.006-2.179s-2.179-6.512-2.179-7.006a.95.95 0 0 1 .95-.95h4.434a.95.95 0 1 1 0 1.9H315.9c.125 1.444.529 3.666 1.575 4.713 1.325 1.325 4.537 1.62 5.664 1.622a.95.95 0 0 1 0 1.9z" class="prefix__cls-7" data-name="Path 58" transform="translate(-313.954 -344.702)"/>
            <path id="prefix__Path_59" d="M1146 361.171c.494 0 4.889-.061 7.006-2.179s2.179-6.512 2.179-7.006a.95.95 0 0 0-.95-.95h-4.435a.95.95 0 0 0 0 1.9h3.437c-.125 1.444-.529 3.666-1.575 4.713-1.325 1.325-4.537 1.62-5.663 1.622a.95.95 0 0 0 0 1.9z" class="prefix__cls-7" data-name="Path 59" transform="translate(-1121.933 -344.702)"/>
            <path id="prefix__Path_60" d="M680.819 1149.874c0 1.05-3.12 1.9-6.968 1.9s-6.968-.851-6.968-1.9 3.12-1.9 6.968-1.9 6.968.85 6.968 1.9z" class="prefix__cls-7" data-name="Path 60" transform="translate(-657.065 -1119.468)"/>
            <path id="prefix__Path_61" d="M742.163 766.214a9.4 9.4 0 0 0-.633-5.321H739a9.406 9.406 0 0 0-.633 5.321 6.812 6.812 0 0 1-3.167 7.316l5.067.665 5.067-.665a6.812 6.812 0 0 1-3.171-7.316z" class="prefix__cls-7" data-name="Path 61" transform="translate(-723.476 -743.156)"/>
            <path id="prefix__Path_62" d="M703.833 1176.982a.583.583 0 0 1 .022.128c0 1.05-2.836 1.9-6.334 1.9a12.546 12.546 0 0 1-5.639-1.037c.413.845 3.06 1.5 6.272 1.5 3.5 0 6.334-.773 6.334-1.727 0-.276-.24-.534-.655-.764z" class="prefix__cls-8" data-name="Path 62" transform="translate(-681.367 -1147.67)"/>
            <path id="prefix__Path_63" d="M461.959 244.79s1.689 20.833 12.669 20.833c9.854 0 12.669-20.833 12.669-20.833z" class="prefix__cls-8" data-name="Path 63" transform="translate(-457.842 -241.411)"/>
            <g id="prefix__Group_28" data-name="Group 28" transform="translate(14.886 3.775)">
                <path id="prefix__Path_64" d="M1129.422 265.855a50.955 50.955 0 0 0 1.517-6.818h-4.258a51.5 51.5 0 0 1-1.358 7.789 34.2 34.2 0 0 0 4.099-.971z" class="prefix__cls-9" data-name="Path 64" transform="translate(-1117.637 -259.037)"/>
                <path id="prefix__Path_65" d="M855.908 608.121c-1.357 3.891-3.5 7.49-6.867 8.335a7.373 7.373 0 0 0 1.73.2c4.445 0 7.32-4.641 9.093-9.34a40.212 40.212 0 0 1-3.956.805z" class="prefix__cls-9" data-name="Path 65" transform="translate(-849.041 -597.631)"/>
            </g>
            <path id="prefix__Path_66" d="M487.3 126.715c0 1.866-5.672 3.378-12.669 3.378s-12.669-1.513-12.669-3.378 5.672-3.379 12.669-3.379 12.669 1.513 12.669 3.379z" class="prefix__cls-7" data-name="Path 66" transform="translate(-457.842 -123.336)"/>
            <path id="prefix__Path_67" fill="#e59c33" d="M530.3 148.644c0 1.4-5.1 2.534-11.4 2.534s-11.4-1.135-11.4-2.534 5.1-2.534 11.4-2.534 11.4 1.135 11.4 2.534z" data-name="Path 67" transform="translate(-502.11 -145.476)"/>
            <path id="prefix__Path_68" d="M794.061 421.054l1.194 2.551 2.794.347-2.057 1.922.534 2.765-2.464-1.362-2.464 1.362.533-2.765-2.057-1.922 2.794-.347z" class="prefix__cls-7" data-name="Path 68" transform="translate(-776.828 -412.772)"/>
        </g>
    </g>
</svg>
