<svg xmlns="http://www.w3.org/2000/svg" width="12.696" height="12.695" viewBox="0 0 12.696 12.695">
    <defs>
        <clipPath id="prefix__clip-path">
            <path fill="none" d="M0 0H12.696V12.696H0z"/>
        </clipPath>
    </defs>
    <g id="prefix__Soccer_icon" clip-path="url(#prefix__clip-path)" data-name="Soccer icon">
        <path id="prefix__Soccer_icon-2" fill="#8a8d8f" stroke="rgba(0,0,0,0)" d="M288.437 54.1a5.848 5.848 0 1 0 5.848-5.848 5.848 5.848 0 0 0-5.848 5.848zm3.258 4.117a2.6 2.6 0 0 1-.259-.059 4.982 4.982 0 0 1-1.928-2.689 2.9 2.9 0 0 0 1 .241 5.227 5.227 0 0 0 1.2 1.554 2.646 2.646 0 0 0-.008.95zm.521.128l-.093-.063a.468.468 0 0 1-.026-.039 2.209 2.209 0 0 1-.008-.874 3.351 3.351 0 0 0 1.467-.467 3.841 3.841 0 0 0 1.944.728l.006.749a4.057 4.057 0 0 1-2.636.383l-.008-.027-.087-.013h-.009c-.081-.048-.329-.2-.556-.37zm5.2-4.464c.053-.066.12-.156.192-.262a3.169 3.169 0 0 0 .507-1.143 3.805 3.805 0 0 1 .8.573c.074.177.19.459.337.836a4.966 4.966 0 0 1-.016.646 3.425 3.425 0 0 1-.5 1.063 4.989 4.989 0 0 1-.536.657c-.273-.1-.454-.168-.57-.213a5.447 5.447 0 0 0-.213-2.16zm-6.172.062a2.853 2.853 0 0 0-.307.38 3.492 3.492 0 0 0-.459 1 2.7 2.7 0 0 1-.9-.246l-.032-.019c-.047-.1-.145-.321-.211-.493a5.025 5.025 0 0 1-.013-.831.185.185 0 0 0 .018-.043 6.136 6.136 0 0 1 .77-1.718 3.035 3.035 0 0 1 .227-.3c.236.059.431.107.576.141a5.057 5.057 0 0 0 .332 2.126zm2.361-4.8a5 5 0 0 1 2.311.226 3.364 3.364 0 0 0 .319.282 2.368 2.368 0 0 1 .187.85 4.7 4.7 0 0 0-1.428.389 4.512 4.512 0 0 0-1.927-.685c-.038-.226-.076-.456-.1-.609a2.953 2.953 0 0 1 .64-.452zm4.581 8.019a3 3 0 0 0 .216-.566 5.827 5.827 0 0 0 .408-.452 5.063 5.063 0 0 1-.623 1.019zm-1.377-6.6a2.446 2.446 0 0 0-.121-.806h.079c.106.061.21.127.31.194a4.932 4.932 0 0 1 1.883 2.42l-.042.158a6.112 6.112 0 0 0-.874-.538 9.255 9.255 0 0 0-1.233-1.425zm.41 5.6a4.022 4.022 0 0 1-1.515 1.085 3.49 3.49 0 0 1-1.959-.7 8.736 8.736 0 0 0-.19-1.715 12.552 12.552 0 0 0 1.771-1.5l1.72.664a4.962 4.962 0 0 1 .175 2.171zm-.678 2.346a4.945 4.945 0 0 1-1.521.485 4.652 4.652 0 0 0 .8-.347 3.394 3.394 0 0 0 .723-.133zm-4.917-4.675a4.705 4.705 0 0 1-.323-2.08l.021-.024.007-.007.005-.008-.105-.08.109.074a3.24 3.24 0 0 1 1.53-1.134 4.264 4.264 0 0 1 1.927.649c.109.733.237 1.455.3 1.794a12.842 12.842 0 0 1-1.732 1.482c-.253-.099-1.179-.457-1.737-.661z" data-name="Soccer icon" transform="translate(-287.937 -47.749)"/>
    </g>
</svg>
