<svg xmlns="http://www.w3.org/2000/svg" width="22.431" height="20.25" viewBox="0 0 22.431 20.25">
    <defs>
        <style>
            .prefix__cls-1{fill:none;stroke:#56ba77;stroke-linecap:round;stroke-linejoin:round;stroke-miterlimit:10}
        </style>
    </defs>
    <g id="prefix__League_table_icon" data-name="League table icon" transform="translate(.5 .5)">
        <g id="prefix__Group_11" data-name="Group 11" transform="translate(.32)">
            <path id="prefix__Rectangle_29" d="M0 0H6.93V9.833H0z" class="prefix__cls-1" data-name="Rectangle 29" transform="translate(0 7.522)"/>
            <path id="prefix__Rectangle_30" d="M0 0H6.93V17.355H0z" class="prefix__cls-1" data-name="Rectangle 30" transform="translate(6.93)"/>
            <path id="prefix__Rectangle_31" d="M0 0H6.93V12.881H0z" class="prefix__cls-1" data-name="Rectangle 31" transform="translate(13.86 4.474)"/>
            <g id="prefix__Group_9" data-name="Group 9" transform="translate(9.21 5.005)">
                <path id="prefix__Path_19" d="M121 89h.829v3.317" class="prefix__cls-1" data-name="Path 19" transform="translate(-120.645 -89)"/>
                <path id="prefix__Line_4" d="M0 0L2.369 0" class="prefix__cls-1" data-name="Line 4" transform="translate(0 3.317)"/>
            </g>
            <path id="prefix__Path_20" d="M174 121h2.014v1.422h-1.54v1.422h2.014" class="prefix__cls-1" data-name="Path 20" transform="translate(-158.156 -112.204)"/>
            <g id="prefix__Group_10" data-name="Group 10" transform="translate(2.577 10.691)">
                <path id="prefix__Path_21" d="M62 137h1.658v3.08H62" class="prefix__cls-1" data-name="Path 21" transform="translate(-62 -137)"/>
                <path id="prefix__Line_5" d="M0 0L1.658 0" class="prefix__cls-1" data-name="Line 5" transform="translate(0 1.54)"/>
            </g>
        </g>
        <path id="prefix__Rectangle_32" d="M0 0H21.431V1.895H0z" class="prefix__cls-1" data-name="Rectangle 32" transform="translate(0 17.355)"/>
    </g>
</svg>
