<svg xmlns="http://www.w3.org/2000/svg" width="41.735" height="27.055" viewBox="0 0 41.735 27.055">
    <defs>
        <clipPath id="prefix__clip-path">
            <path fill="none" d="M0 0H41.735V27.055H0z"/>
        </clipPath>
        <style>
            .prefix__cls-3{fill:#cc8956}.prefix__cls-4{fill:#e8bda0}.prefix__cls-7{fill:#9dbcc1}.prefix__cls-8{fill:#b7dae2}.prefix__cls-9{fill:#cee6ea}.prefix__cls-11{fill:#f6ae3c}.prefix__cls-12{fill:#fdd077}.prefix__cls-13{fill:#ffdea6}
        </style>
    </defs>
    <g id="prefix__Third_place_icon" clip-path="url(#prefix__clip-path)" data-name="Third place icon">
        <g id="prefix__Group_35" data-name="Group 35" transform="translate(27.515 12.879)">
            <path id="prefix__Path_81" d="M3507 355.37a3.372 3.372 0 0 1-3.927-3.928.406.406 0 0 1 .406-.406h1.9a.406.406 0 0 1 0 .813h-1.47a3.6 3.6 0 0 0 .674 2.015 4.143 4.143 0 0 0 2.422.694.406.406 0 0 1 0 .813z" class="prefix__cls-3" data-name="Path 81" transform="translate(-3503.077 -348.327)"/>
            <path id="prefix__Path_82" d="M4334.586 355.37a3.372 3.372 0 0 0 3.928-3.928.406.406 0 0 0-.406-.406h-1.9a.406.406 0 0 0 0 .813h1.469a3.6 3.6 0 0 1-.673 2.015 4.143 4.143 0 0 1-2.422.694.406.406 0 0 0 0 .813z" class="prefix__cls-3" data-name="Path 82" transform="translate(-4324.294 -348.327)"/>
            <path id="prefix__Path_83" d="M3861.967 1148.786c0 .449-1.334.813-2.979.813s-2.979-.364-2.979-.812 1.334-.813 2.979-.813 2.979.363 2.979.812z" class="prefix__cls-3" data-name="Path 83" transform="translate(-3851.81 -1135.784)"/>
            <path id="prefix__Path_84" d="M3927.3 763.168a4.022 4.022 0 0 0-.271-2.275h-1.083a4.023 4.023 0 0 0-.271 2.275 2.913 2.913 0 0 1-1.354 3.129l2.167.284 2.167-.284a2.913 2.913 0 0 1-1.355-3.129z" class="prefix__cls-3" data-name="Path 84" transform="translate(-3919.308 -753.309)"/>
            <path id="prefix__Path_85" d="M3886.117 1176.982a.253.253 0 0 1 .009.055c0 .449-1.213.813-2.708.813a5.366 5.366 0 0 1-2.411-.443c.177.361 1.309.64 2.682.64 1.5 0 2.708-.331 2.708-.739.003-.117-.102-.228-.28-.326z" class="prefix__cls-4" data-name="Path 85" transform="translate(-3876.511 -1164.448)"/>
            <path id="prefix__Path_86" fill="#dda27a" d="M3651.084 244.79s.722 8.908 5.417 8.908c4.213 0 5.417-8.908 5.417-8.908z" data-name="Path 86" transform="translate(-3649.323 -243.345)"/>
            <g id="prefix__Group_33" data-name="Group 33" transform="translate(6.365 1.614)">
                <path id="prefix__Path_87" d="M4316.2 261.952a21.827 21.827 0 0 0 .648-2.915h-1.821a22.065 22.065 0 0 1-.581 3.331 14.649 14.649 0 0 0 1.754-.416z" class="prefix__cls-4" data-name="Path 87" transform="translate(-4311.161 -259.037)"/>
                <path id="prefix__Path_88" d="M4041.1 607.663c-.58 1.664-1.5 3.2-2.936 3.564a3.158 3.158 0 0 0 .74.087c1.9 0 3.13-1.985 3.888-3.994a17.184 17.184 0 0 1-1.692.343z" class="prefix__cls-4" data-name="Path 88" transform="translate(-4038.165 -603.177)"/>
            </g>
            <path id="prefix__Path_89" d="M3661.918 124.781c0 .8-2.426 1.445-5.417 1.445s-5.417-.647-5.417-1.445 2.425-1.445 5.417-1.445 5.417.647 5.417 1.445z" class="prefix__cls-3" data-name="Path 89" transform="translate(-3649.323 -123.336)"/>
            <path id="prefix__Path_90" fill="#ba784a" d="M3706.37 147.194c0 .6-2.183 1.084-4.875 1.084s-4.875-.485-4.875-1.084 2.183-1.084 4.875-1.084 4.875.49 4.875 1.084z" data-name="Path 90" transform="translate(-3694.317 -145.839)"/>
            <g id="prefix__Group_34" data-name="Group 34" transform="translate(4.723 4.437)">
                <path id="prefix__Path_91" d="M3900.847 496.3l.229.489.535.066-.394.368.1.53-.472-.261-.472.261.1-.53-.394-.368.535-.066z" class="prefix__cls-3" data-name="Path 91" transform="translate(-3900.083 -496.298)"/>
                <path id="prefix__Path_92" d="M4035.133 496.3l.229.489.535.066-.394.368.1.53-.472-.261-.472.261.1-.53-.394-.368.535-.066z" class="prefix__cls-3" data-name="Path 92" transform="translate(-4032.772 -496.298)"/>
                <path id="prefix__Path_93" d="M4169.42 496.3l.229.489.536.066-.395.368.1.53-.473-.261-.472.261.1-.53-.394-.368.535-.066z" class="prefix__cls-3" data-name="Path 93" transform="translate(-4165.461 -496.298)"/>
            </g>
        </g>
        <g id="prefix__Group_37" data-name="Group 37" transform="translate(15.637 7.353)">
            <path id="prefix__Path_69" d="M1914.118 357.217c-.3 0-2.982-.037-4.273-1.329s-1.329-3.971-1.329-4.273a.579.579 0 0 1 .579-.579h2.7a.579.579 0 1 1 0 1.159h-2.1a5.136 5.136 0 0 0 .961 2.874c.808.808 2.767.988 3.454.989a.579.579 0 0 1 0 1.159z" class="prefix__cls-7" data-name="Path 69" transform="translate(-1908.516 -347.173)"/>
            <path id="prefix__Path_70" d="M2740.2 357.217c.3 0 2.981-.037 4.273-1.329s1.329-3.971 1.329-4.273a.579.579 0 0 0-.579-.579h-2.7a.579.579 0 0 0 0 1.159h2.1a5.136 5.136 0 0 1-.96 2.874c-.808.808-2.767.988-3.454.989a.579.579 0 0 0 0 1.159z" class="prefix__cls-7" data-name="Path 70" transform="translate(-2725.516 -347.173)"/>
            <path id="prefix__Path_71" d="M2269.944 1149.132c0 .64-1.9 1.159-4.25 1.159s-4.249-.519-4.249-1.159 1.9-1.159 4.249-1.159 4.25.519 4.25 1.159z" class="prefix__cls-7" data-name="Path 71" transform="translate(-2255.457 -1130.589)"/>
            <path id="prefix__Path_72" d="M2334.006 764.138a5.734 5.734 0 0 0-.386-3.245h-1.545a5.739 5.739 0 0 0-.386 3.245 4.154 4.154 0 0 1-1.931 4.462l3.091.406 3.09-.406a4.154 4.154 0 0 1-1.933-4.462z" class="prefix__cls-7" data-name="Path 72" transform="translate(-2322.61 -750.076)"/>
            <path id="prefix__Path_73" d="M2293.733 1176.982a.363.363 0 0 1 .013.078c0 .64-1.73 1.159-3.863 1.159a7.651 7.651 0 0 1-3.439-.632c.252.515 1.866.913 3.825.913 2.134 0 3.863-.472 3.863-1.053 0-.167-.146-.325-.399-.465z" class="prefix__cls-8" data-name="Path 73" transform="translate(-2280.032 -1159.106)"/>
            <path id="prefix__Path_74" d="M2056.522 244.79s1.03 12.705 7.726 12.705c6.009 0 7.726-12.705 7.726-12.705z" class="prefix__cls-8" data-name="Path 74" transform="translate(-2054.011 -242.729)"/>
            <g id="prefix__Group_30" data-name="Group 30" transform="translate(9.078 2.302)">
                <path id="prefix__Path_75" d="M2722.386 263.195a31.1 31.1 0 0 0 .925-4.158h-2.6a31.412 31.412 0 0 1-.828 4.75 20.87 20.87 0 0 0 2.503-.592z" class="prefix__cls-9" data-name="Path 75" transform="translate(-2715.199 -259.037)"/>
                <path id="prefix__Path_76" d="M2447.791 607.809c-.828 2.373-2.135 4.568-4.188 5.083a4.5 4.5 0 0 0 1.055.124c2.711 0 4.464-2.831 5.546-5.7a24.529 24.529 0 0 1-2.413.493z" class="prefix__cls-9" data-name="Path 76" transform="translate(-2443.603 -601.411)"/>
            </g>
            <path id="prefix__Path_77" d="M2071.974 125.4c0 1.138-3.459 2.06-7.726 2.06s-7.726-.923-7.726-2.06 3.459-2.061 7.726-2.061 7.726.92 7.726 2.061z" class="prefix__cls-7" data-name="Path 77" transform="translate(-2054.011 -123.336)"/>
            <path id="prefix__Path_78" fill="#8cacaf" d="M2115.963 147.655c0 .853-3.113 1.545-6.954 1.545s-6.953-.692-6.953-1.545 3.113-1.545 6.953-1.545 6.954.69 6.954 1.545z" data-name="Path 78" transform="translate(-2098.772 -145.724)"/>
            <g id="prefix__Group_31" data-name="Group 31" transform="translate(7.361 5.998)">
                <path id="prefix__Path_79" d="M2343.781 476.872l.416.888.972.121-.716.669.186.962-.858-.474-.858.474.186-.962-.716-.669.973-.121z" class="prefix__cls-7" data-name="Path 79" transform="translate(-2342.393 -476.872)"/>
                <path id="prefix__Path_80" d="M2526.944 476.872l.416.888.972.121-.716.669.186.962-.858-.474-.858.474.186-.962-.716-.669.973-.121z" class="prefix__cls-7" data-name="Path 80" transform="translate(-2522.448 -476.872)"/>
            </g>
        </g>
        <g id="prefix__Group_38" data-name="Group 38">
            <path id="prefix__Path_58" d="M321.646 359.524c-.414 0-4.094-.051-5.867-1.825s-1.824-5.453-1.824-5.868a.8.8 0 0 1 .8-.8h3.713a.8.8 0 1 1 0 1.591h-2.878c.1 1.209.443 3.07 1.319 3.947 1.11 1.109 3.8 1.357 4.743 1.358a.8.8 0 0 1 0 1.591z" class="prefix__cls-11" data-name="Path 58" transform="translate(-313.954 -345.731)"/>
            <path id="prefix__Path_59" d="M1145.849 359.524c.414 0 4.094-.051 5.868-1.825s1.824-5.453 1.824-5.868a.8.8 0 0 0-.8-.8h-3.713a.8.8 0 0 0 0 1.591h2.878c-.1 1.209-.443 3.07-1.319 3.947-1.109 1.109-3.8 1.357-4.743 1.358a.8.8 0 0 0 0 1.591z" class="prefix__cls-11" data-name="Path 59" transform="translate(-1125.691 -345.731)"/>
            <path id="prefix__Path_60" d="M678.554 1149.565c0 .879-2.613 1.591-5.836 1.591s-5.835-.712-5.835-1.591 2.613-1.592 5.835-1.592 5.836.713 5.836 1.592z" class="prefix__cls-11" data-name="Path 60" transform="translate(-658.661 -1124.101)"/>
            <path id="prefix__Path_61" d="M741.03 765.349a7.875 7.875 0 0 0-.53-4.456h-2.122a7.877 7.877 0 0 0-.53 4.456 5.7 5.7 0 0 1-2.652 6.127l4.244.557 4.244-.557a5.7 5.7 0 0 1-2.654-6.127z" class="prefix__cls-11" data-name="Path 61" transform="translate(-725.381 -746.039)"/>
            <path id="prefix__Path_62" d="M701.89 1176.982a.49.49 0 0 1 .018.107c0 .879-2.375 1.592-5.3 1.592a10.5 10.5 0 0 1-4.723-.869c.346.708 2.563 1.254 5.253 1.254 2.93 0 5.3-.648 5.3-1.446.001-.229-.2-.445-.548-.638z" class="prefix__cls-12" data-name="Path 62" transform="translate(-683.076 -1152.435)"/>
            <path id="prefix__Path_63" d="M461.959 244.79s1.414 17.447 10.609 17.447c8.252 0 10.61-17.447 10.61-17.447z" class="prefix__cls-12" data-name="Path 63" transform="translate(-458.511 -241.96)"/>
            <g id="prefix__Group_28" data-name="Group 28" transform="translate(12.466 3.162)">
                <path id="prefix__Path_64" d="M1128.756 264.747a42.658 42.658 0 0 0 1.27-5.71h-3.566a43.141 43.141 0 0 1-1.138 6.523 28.639 28.639 0 0 0 3.434-.813z" class="prefix__cls-13" data-name="Path 64" transform="translate(-1118.886 -259.037)"/>
                <path id="prefix__Path_65" d="M854.792 607.991c-1.136 3.258-2.932 6.273-5.751 6.98a6.174 6.174 0 0 0 1.449.171c3.722 0 6.13-3.887 7.615-7.822a33.643 33.643 0 0 1-3.313.671z" class="prefix__cls-13" data-name="Path 65" transform="translate(-849.041 -599.206)"/>
            </g>
            <path id="prefix__Path_66" d="M483.178 126.166c0 1.562-4.75 2.829-10.61 2.829s-10.609-1.267-10.609-2.829 4.75-2.83 10.609-2.83 10.61 1.264 10.61 2.83z" class="prefix__cls-11" data-name="Path 66" transform="translate(-458.511 -123.336)"/>
            <path id="prefix__Path_67" fill="#e59c33" d="M526.591 148.232c0 1.172-4.275 2.122-9.549 2.122s-9.549-.95-9.549-2.122 4.275-2.122 9.549-2.122 9.549.951 9.549 2.122z" data-name="Path 67" transform="translate(-502.985 -145.579)"/>
            <path id="prefix__Path_68" d="M793.412 421.054l1 2.136 2.34.291-1.723 1.61.447 2.315-2.064-1.141-2.064 1.141.447-2.315-1.722-1.61 2.34-.291z" class="prefix__cls-11" data-name="Path 68" transform="translate(-778.981 -414.118)"/>
        </g>
    </g>
</svg>
