<svg xmlns="http://www.w3.org/2000/svg" id="prefix__Weekly_matches_icon" width="18.571" height="20" data-name="Weekly matches icon" viewBox="0 0 18.571 20">
    <defs>
        <style>
            .prefix__cls-1{fill:#56ba77;stroke:#56ba77;stroke-width:.2px}
        </style>
    </defs>
    <g id="prefix__Icon-Trophy" transform="translate(3.928 8.236)">
        <path id="prefix__Fill-1_2_" d="M-7.068-513.094c.924-.7 2.31-1.782 2.31-5.7v-.308H-11.6v.308c0 3.938 1.386 4.994 2.31 5.7.528.418.792.638.792 1.122v.946a1.377 1.377 0 0 0-1.166.616h-.7a.615.615 0 0 0-.616.616h5.58a.615.615 0 0 0-.616-.616h-.7a1.431 1.431 0 0 0-1.166-.616v-.946c.022-.506.286-.726.814-1.122zm-1.1.176a3.459 3.459 0 0 0-.726-.66c-.836-.66-2-1.54-2.068-4.906h5.589c-.066 3.366-1.21 4.246-2.068 4.906a3.459 3.459 0 0 0-.726.66z" class="prefix__cls-1" transform="translate(13.448 519.1)"/>
        <path id="prefix__Fill-2_1_" d="M-16.634-511.658A4.328 4.328 0 0 1-20-515.992v-.308h2.178v.616h-1.54a3.749 3.749 0 0 0 2.838 3.432l-.11.594" class="prefix__cls-1" transform="translate(20 516.916)"/>
        <path id="prefix__Fill-3_2_" d="M12.232-511.735l-.132-.616a3.658 3.658 0 0 0 2.838-3.432H13.4v-.616h2.2v.308a4.337 4.337 0 0 1-3.366 4.356" class="prefix__cls-1" transform="translate(-5.037 516.994)"/>
    </g>
    <path id="prefix__iconfinder_calendar-check-o_1608596" fill="#56ba77" d="M18.147 3.281a1.373 1.373 0 0 0-1-.424h-1.433V1.786A1.72 1.72 0 0 0 15.19.525 1.72 1.72 0 0 0 13.929 0h-.714a1.72 1.72 0 0 0-1.261.525 1.72 1.72 0 0 0-.525 1.261v1.071H7.143V1.786A1.72 1.72 0 0 0 6.618.525 1.72 1.72 0 0 0 5.357 0h-.714a1.72 1.72 0 0 0-1.261.525 1.72 1.72 0 0 0-.525 1.261v1.071H1.429a1.373 1.373 0 0 0-1 .424 1.373 1.373 0 0 0-.424 1v14.29a1.373 1.373 0 0 0 .424 1 1.373 1.373 0 0 0 1 .424h15.714a1.448 1.448 0 0 0 1.429-1.429V4.286a1.373 1.373 0 0 0-.425-1.005zm-5.29-1.5a.344.344 0 0 1 .357-.357h.714a.344.344 0 0 1 .357.357V5a.344.344 0 0 1-.357.357h-.714A.344.344 0 0 1 12.857 5zm-8.571 0a.344.344 0 0 1 .357-.357h.714a.344.344 0 0 1 .357.357V5a.344.344 0 0 1-.357.357h-.714A.344.344 0 0 1 4.286 5zm12.857 16.79H1.429V7.143h15.714z"/>
</svg>
