<svg xmlns="http://www.w3.org/2000/svg" width="12.35" height="15.299" viewBox="0 0 12.35 15.299">
    <defs>
        <clipPath id="clip-path">
            <path fill="none" d="M0 0H12.35V15.299H0z"/>
        </clipPath>
        <style>
            .cls-3{fill:#60d587;stroke:#60d587;stroke-width:.5px}
        </style>
    </defs>
    <g id="Copy_icon" clip-path="url(#clip-path)" data-name="Copy icon">
        <g id="Group_46" data-name="Group 46" transform="translate(.25 .25)">
            <path id="Path_103" d="M49.82 85.4h6.88a1.171 1.171 0 0 1 1.17 1.17v9.871a1.171 1.171 0 0 1-1.17 1.17h-6.88a1.171 1.171 0 0 1-1.17-1.17V86.57a1.174 1.174 0 0 1 1.17-1.17zm-.349 11.038a.352.352 0 0 0 .352.352H56.7a.352.352 0 0 0 .352-.352V86.57a.352.352 0 0 0-.352-.352h-6.88a.352.352 0 0 0-.352.352z" class="cls-3" data-name="Path 103" transform="translate(-46.019 -82.812)"/>
            <path id="Path_104" d="M136.62 0h6.88a1.171 1.171 0 0 1 1.17 1.17.409.409 0 0 1-.818 0 .352.352 0 0 0-.352-.352h-6.88a.352.352 0 0 0-.352.352v9.871a.352.352 0 0 0 .352.352.409.409 0 1 1 0 .818 1.171 1.171 0 0 1-1.17-1.17V1.17A1.171 1.171 0 0 1 136.62 0z" class="cls-3" data-name="Path 104" transform="translate(-135.45)"/>
        </g>
    </g>
</svg>
