<svg xmlns="http://www.w3.org/2000/svg" width="25.208" height="25.208" viewBox="0 0 25.208 25.208">
    <defs>
        <clipPath id="clip-path">
            <path fill="none" d="M0 0H25.208V25.208H0z"/>
        </clipPath>
    </defs>
    <g id="link_icon" clip-path="url(#clip-path)" data-name="link icon">
        <circle id="Ellipse_7" cx="12.604" cy="12.604" r="12.604" fill="#4fb16f" data-name="Ellipse 7"/>
        <path id="Path_102" fill="#fff" d="M5.509 11.935l-.761.756a1.7 1.7 0 0 1-2.392 0 1.655 1.655 0 0 1 0-2.353l2.8-2.78c.581-.576 1.673-1.424 2.469-.634A.932.932 0 0 0 8.94 5.6c-1.353-1.343-3.354-1.095-5.1.634l-2.8 2.78a3.518 3.518 0 0 0 0 5 3.573 3.573 0 0 0 5.019 0l.762-.756a.932.932 0 0 0-1.314-1.322zM14 1.136A3.33 3.33 0 0 0 9.169.951l-.949.942a.932.932 0 1 0 1.314 1.323l.948-.941a1.51 1.51 0 0 1 2.205.185 1.655 1.655 0 0 1 0 2.354L9.7 7.779c-1.367 1.356-2.008.72-2.282.448A.932.932 0 1 0 6.1 9.55a2.94 2.94 0 0 0 2.095.932A4.1 4.1 0 0 0 11.012 9.1L14 6.136a3.518 3.518 0 0 0 0-5z" data-name="Path 102" transform="translate(4.929 4.848)"/>
    </g>
</svg>
